<?xml version="1.0" encoding="UTF-8" standalone="no"?>
<svg
   version="1.1"
   viewBox="0 0 1245.7386 406.85268"
   stroke-miterlimit="10"
   id="svg182"
   sodipodi:docname="PSO_diagram.svg"
   inkscape:version="1.1.1 (3bf5ae0d25, 2021-09-20)"
   width="1245.7385"
   height="406.85266"
   style="fill:none;stroke:none;stroke-linecap:square;stroke-miterlimit:10"
   inkscape:export-filename="/home/B268176/research-spc/haven_support/PSO_diagram.png"
   inkscape:export-xdpi="196"
   inkscape:export-ydpi="196"
   xmlns:inkscape="http://www.inkscape.org/namespaces/inkscape"
   xmlns:sodipodi="http://sodipodi.sourceforge.net/DTD/sodipodi-0.dtd"
   xmlns="http://www.w3.org/2000/svg"
   xmlns:svg="http://www.w3.org/2000/svg"
   xmlns:rdf="http://www.w3.org/1999/02/22-rdf-syntax-ns#"
   xmlns:cc="http://creativecommons.org/ns#"
   xmlns:dc="http://purl.org/dc/elements/1.1/">
  <sodipodi:namedview
     pagecolor="#ffffff"
     bordercolor="#666666"
     borderopacity="1"
     objecttolerance="10"
     gridtolerance="10"
     guidetolerance="10"
     inkscape:pageopacity="0"
     inkscape:pageshadow="2"
     inkscape:window-width="1916"
     inkscape:window-height="1028"
     id="namedview184"
     showgrid="false"
     inkscape:zoom="5.9386058"
     inkscape:cx="827.88792"
     inkscape:cy="104.4858"
     inkscape:window-x="0"
     inkscape:window-y="18"
     inkscape:window-maximized="1"
     inkscape:current-layer="svg182"
     fit-margin-top="0"
     fit-margin-left="0"
     fit-margin-right="0"
     fit-margin-bottom="0"
     inkscape:pagecheckerboard="0" />
  <metadata
     id="metadata188">
    <rdf:RDF>
      <cc:Work
         rdf:about="">
        <dc:format>image/svg+xml</dc:format>
        <dc:type
           rdf:resource="http://purl.org/dc/dcmitype/StillImage" />
      </cc:Work>
    </rdf:RDF>
  </metadata>
  <defs
     id="defs186">
    <clipPath
       id="p.1">
      <path
         d="M 0,0 H 1936 V 620 H 0 Z"
         id="path11"
         inkscape:connector-curvature="0"
         style="clip-rule:evenodd" />
    </clipPath>
  </defs>
  <clipPath
     id="p.0">
    <path
       d="M 0,0 H 1335.2887 V 609.31757 H 0 Z"
       id="path2"
       inkscape:connector-curvature="0"
       style="clip-rule:nonzero" />
  </clipPath>
  <path
     style="fill:#000000;fill-rule:evenodd;stroke:#000000;stroke-width:2;stroke-linecap:butt"
     inkscape:connector-curvature="0"
     id="path22"
     d="m 1162.7374,366.00581 9.0762,-3.30347 -9.0762,-3.30346 z" />
  <path
     style="fill-rule:evenodd;stroke:#bf9000;stroke-width:8;stroke-linecap:butt;stroke-linejoin:round"
     inkscape:connector-curvature="0"
     id="path26"
     d="m 816.47787,341.56848 v 42.26774" />
  <g
     id="g33537"
     transform="translate(-137.65557)">
    <path
       style="fill:#000000;fill-rule:nonzero"
       inkscape:connector-curvature="0"
       id="path30"
       d="M 145.73804,314.21115 V 302.4299 h -4.40625 v -1.57813 h 10.57813 v 1.57813 h -4.40625 v 11.78125 z m 12.0301,-1.1875 q -0.92188,0.76562 -1.76563,1.09375 -0.82812,0.3125 -1.79687,0.3125 -1.59375,0 -2.45313,-0.78125 -0.85938,-0.78125 -0.85938,-1.98438 0,-0.71875 0.32813,-1.29687 0.32813,-0.59375 0.84375,-0.9375 0.53125,-0.35938 1.1875,-0.54688 0.46875,-0.125 1.45313,-0.25 1.98437,-0.23437 2.92187,-0.5625 0.0156,-0.34375 0.0156,-0.42187 0,-1 -0.46875,-1.42188 -0.625,-0.54687 -1.875,-0.54687 -1.15625,0 -1.70312,0.40625 -0.54688,0.40625 -0.8125,1.42187 l -1.60938,-0.21875 q 0.21875,-1.01562 0.71875,-1.64062 0.5,-0.64063 1.45313,-0.98438 0.95312,-0.34375 2.1875,-0.34375 1.25,0 2.01562,0.29688 0.78125,0.28125 1.14063,0.73437 0.375,0.4375 0.51562,1.10938 0.0781,0.42187 0.0781,1.51562 v 2.1875 q 0,2.28125 0.10938,2.89063 0.10937,0.59375 0.40625,1.15625 h -1.70313 q -0.26562,-0.51563 -0.32812,-1.1875 z m -0.14063,-3.67188 q -0.89062,0.375 -2.67187,0.625 -1.01563,0.14063 -1.4375,0.32813 -0.42188,0.1875 -0.65625,0.53125 -0.21875,0.34375 -0.21875,0.78125 0,0.65625 0.5,1.09375 0.5,0.4375 1.45312,0.4375 0.9375,0 1.67188,-0.40625 0.75,-0.42188 1.09375,-1.14063 0.26562,-0.5625 0.26562,-1.64062 z m 3.11009,4.85938 3.53125,-5.03125 -3.26562,-4.64063 h 2.04687 l 1.48438,2.26563 q 0.42187,0.64062 0.67187,1.07812 0.40625,-0.59375 0.73438,-1.0625 l 1.64062,-2.28125 h 1.95313 l -3.34375,4.54688 3.59375,5.125 h -2.01563 l -1.98437,-3 -0.51563,-0.8125 -2.54687,3.8125 z m 10.42188,-11.46875 v -1.89063 h 1.64062 v 1.89063 z m 0,11.46875 v -9.67188 h 1.64062 v 9.67188 z" />
    <path
       style="fill:#000000;fill-rule:nonzero"
       inkscape:connector-curvature="0"
       id="path32"
       d="m 137.85675,332.31427 1.65625,-0.14063 q 0.125,1 0.54688,1.64063 0.4375,0.64062 1.34375,1.04687 0.92187,0.39063 2.0625,0.39063 1,0 1.78125,-0.29688 0.78125,-0.29687 1.15625,-0.8125 0.375,-0.53125 0.375,-1.15625 0,-0.625 -0.375,-1.09375 -0.35938,-0.46875 -1.1875,-0.79687 -0.54688,-0.20313 -2.39063,-0.64063 -1.82812,-0.45312 -2.5625,-0.84375 -0.96875,-0.5 -1.4375,-1.23437 -0.46875,-0.75 -0.46875,-1.67188 0,-1 0.57813,-1.875 0.57812,-0.89062 1.67187,-1.34375 1.10938,-0.45312 2.45313,-0.45312 1.48437,0 2.60937,0.48437 1.14063,0.46875 1.75,1.40625 0.60938,0.92188 0.65625,2.09375 l -1.6875,0.125 q -0.14062,-1.26562 -0.9375,-1.90625 -0.78125,-0.65625 -2.3125,-0.65625 -1.60937,0 -2.34375,0.59375 -0.73437,0.59375 -0.73437,1.42188 0,0.71875 0.53125,1.17187 0.5,0.46875 2.65625,0.96875 2.15625,0.48438 2.95312,0.84375 1.17188,0.53125 1.71875,1.35938 0.5625,0.82812 0.5625,1.90625 0,1.0625 -0.60937,2.01562 -0.60938,0.9375 -1.75,1.46875 -1.14063,0.51563 -2.57813,0.51563 -1.8125,0 -3.04687,-0.53125 -1.21875,-0.53125 -1.92188,-1.59375 -0.6875,-1.0625 -0.71875,-2.40625 z m 16.41233,2.82812 0.23438,1.45313 q -0.6875,0.14062 -1.23438,0.14062 -0.89062,0 -1.39062,-0.28125 -0.48438,-0.28125 -0.6875,-0.73437 -0.20313,-0.46875 -0.20313,-1.9375 v -5.57813 h -1.20313 v -1.26562 h 1.20313 v -2.39063 l 1.625,-0.98437 v 3.375 h 1.65625 v 1.26562 h -1.65625 v 5.67188 q 0,0.6875 0.0781,0.89062 0.0937,0.20313 0.28125,0.32813 0.20313,0.10937 0.57813,0.10937 0.26562,0 0.71875,-0.0625 z m 7.91768,0.28125 q -0.92188,0.76563 -1.76563,1.09375 -0.82812,0.3125 -1.79687,0.3125 -1.59375,0 -2.45313,-0.78125 -0.85937,-0.78125 -0.85937,-1.98437 0,-0.71875 0.32812,-1.29688 0.32813,-0.59375 0.84375,-0.9375 0.53125,-0.35937 1.1875,-0.54687 0.46875,-0.125 1.45313,-0.25 1.98437,-0.23438 2.92187,-0.5625 0.0156,-0.34375 0.0156,-0.42188 0,-1 -0.46875,-1.42187 -0.62499,-0.54688 -1.87499,-0.54688 -1.15625,0 -1.70313,0.40625 -0.54687,0.40625 -0.8125,1.42188 l -1.60937,-0.21875 q 0.21875,-1.01563 0.71875,-1.64063 0.5,-0.64062 1.45312,-0.98437 0.95313,-0.34375 2.1875,-0.34375 1.25,0 2.01562,0.29687 0.78125,0.28125 1.14063,0.73438 0.375,0.4375 0.51562,1.10937 0.0781,0.42188 0.0781,1.51563 v 2.1875 q 0,2.28125 0.10938,2.89062 0.10937,0.59375 0.40625,1.15625 h -1.70312 q -0.26563,-0.51562 -0.32813,-1.1875 z m -0.14063,-3.67187 q -0.89062,0.375 -2.67187,0.625 -1.01563,0.14062 -1.4375,0.32812 -0.42188,0.1875 -0.65625,0.53125 -0.21875,0.34375 -0.21875,0.78125 0,0.65625 0.5,1.09375 0.5,0.4375 1.45312,0.4375 0.9375,0 1.67188,-0.40625 0.75,-0.42187 1.09375,-1.14062 0.26562,-0.5625 0.26562,-1.64063 z m 4.18822,4.85937 v -9.67187 h 1.46875 v 1.46875 q 0.5625,-1.03125 1.03125,-1.35938 0.48437,-0.32812 1.0625,-0.32812 0.82812,0 1.6875,0.53125 l -0.5625,1.51562 q -0.60938,-0.35937 -1.20313,-0.35937 -0.54687,0 -0.96875,0.32812 -0.42187,0.32813 -0.60937,0.89063 -0.28125,0.875 -0.28125,1.92187 v 5.0625 z m 9.80642,-1.46875 0.23438,1.45313 q -0.6875,0.14062 -1.23438,0.14062 -0.89062,0 -1.39062,-0.28125 -0.48438,-0.28125 -0.6875,-0.73437 -0.20313,-0.46875 -0.20313,-1.9375 v -5.57813 h -1.20312 v -1.26562 h 1.20312 v -2.39063 l 1.625,-0.98437 v 3.375 h 1.65625 v 1.26562 h -1.65625 v 5.67188 q 0,0.6875 0.0781,0.89062 0.0937,0.20313 0.28125,0.32813 0.20313,0.10937 0.57813,0.10937 0.26562,0 0.71875,-0.0625 z" />
  </g>
  <g
     id="g33546"
     transform="translate(-137.65557)">
    <path
       style="fill:#000000;fill-rule:nonzero"
       inkscape:connector-curvature="0"
       id="path36"
       d="m 337.68345,314.21264 v -13.35937 h 5.04687 q 1.32812,0 2.03125,0.125 0.96875,0.17187 1.64062,0.64062 0.67188,0.45313 1.07813,1.28125 0.40625,0.82813 0.40625,1.82813 0,1.70312 -1.09375,2.89062 -1.07813,1.17188 -3.92188,1.17188 h -3.42186 v 5.42187 z m 1.76563,-7 h 3.45311 q 1.71875,0 2.4375,-0.64062 0.71875,-0.64063 0.71875,-1.79688 0,-0.84375 -0.42187,-1.4375 -0.42188,-0.59375 -1.125,-0.78125 -0.4375,-0.125 -1.64063,-0.125 h -3.42186 z m 10.08419,2.70313 1.65625,-0.14063 q 0.125,1 0.54687,1.64063 0.4375,0.64062 1.34375,1.04687 0.92188,0.39063 2.0625,0.39063 1,0 1.78125,-0.29688 0.78125,-0.29687 1.15625,-0.8125 0.375,-0.53125 0.375,-1.15625 0,-0.625 -0.375,-1.09375 -0.35937,-0.46875 -1.1875,-0.79687 -0.54687,-0.20313 -2.39062,-0.64063 -1.82813,-0.45312 -2.5625,-0.84375 -0.96875,-0.5 -1.4375,-1.23437 -0.46875,-0.75 -0.46875,-1.67188 0,-1 0.57812,-1.875 0.57813,-0.89062 1.67188,-1.34375 1.10937,-0.45312 2.45312,-0.45312 1.48438,0 2.60938,0.48437 1.14062,0.46875 1.75,1.40625 0.60937,0.92188 0.65625,2.09375 l -1.6875,0.125 q -0.14063,-1.26562 -0.9375,-1.90625 -0.78125,-0.65625 -2.3125,-0.65625 -1.60938,0 -2.34375,0.59375 -0.73438,0.59375 -0.73438,1.42188 0,0.71875 0.53125,1.17187 0.5,0.46875 2.65625,0.96875 2.15625,0.48438 2.95313,0.84375 1.17187,0.53125 1.71875,1.35938 0.5625,0.82812 0.5625,1.90625 0,1.0625 -0.60938,2.01562 -0.60937,0.9375 -1.75,1.46875 -1.14062,0.51563 -2.57812,0.51563 -1.8125,0 -3.04688,-0.53125 -1.21875,-0.53125 -1.92187,-1.59375 -0.6875,-1.0625 -0.71875,-2.40625 z m 12.50607,-2.20313 q 0,-3.32812 1.78125,-5.20312 1.78125,-1.89063 4.60937,-1.89063 1.84375,0 3.32813,0.89063 1.48437,0.875 2.26562,2.46875 0.78125,1.57812 0.78125,3.57812 0,2.03125 -0.82812,3.64063 -0.8125,1.59375 -2.3125,2.42187 -1.5,0.82813 -3.25,0.82813 -1.875,0 -3.35938,-0.90625 -1.48437,-0.92188 -2.25,-2.5 -0.76562,-1.57813 -0.76562,-3.32813 z m 1.8125,0.0156 q 0,2.42187 1.29687,3.8125 1.29688,1.39062 3.26563,1.39062 2,0 3.28125,-1.40625 1.28125,-1.40625 1.28125,-3.98437 0,-1.625 -0.54688,-2.84375 -0.54687,-1.21875 -1.60937,-1.875 -1.0625,-0.67188 -2.375,-0.67188 -1.89063,0 -3.25,1.29688 -1.34375,1.28125 -1.34375,4.28125 z" />
    <path
       style="fill:#000000;fill-rule:nonzero"
       inkscape:connector-curvature="0"
       id="path38"
       d="m 337.0897,332.31575 1.65625,-0.14062 q 0.125,1 0.54688,1.64062 0.4375,0.64063 1.34375,1.04688 0.92187,0.39062 2.06249,0.39062 1,0 1.78125,-0.29687 0.78125,-0.29688 1.15625,-0.8125 0.375,-0.53125 0.375,-1.15625 0,-0.625 -0.375,-1.09375 -0.35938,-0.46875 -1.1875,-0.79688 -0.54688,-0.20312 -2.39063,-0.64062 -1.82811,-0.45313 -2.56249,-0.84375 -0.96875,-0.5 -1.4375,-1.23438 -0.46875,-0.75 -0.46875,-1.67187 0,-1 0.57813,-1.875 0.57812,-0.89063 1.67187,-1.34375 1.10938,-0.45313 2.45312,-0.45313 1.48437,0 2.60937,0.48438 1.14063,0.46875 1.75,1.40625 0.60938,0.92187 0.65625,2.09375 l -1.6875,0.125 q -0.14062,-1.26563 -0.9375,-1.90625 -0.78125,-0.65625 -2.3125,-0.65625 -1.60936,0 -2.34374,0.59375 -0.73437,0.59375 -0.73437,1.42187 0,0.71875 0.53125,1.17188 0.5,0.46875 2.65624,0.96875 2.15625,0.48437 2.95312,0.84375 1.17188,0.53125 1.71875,1.35937 0.5625,0.82813 0.5625,1.90625 0,1.0625 -0.60937,2.01563 -0.60938,0.9375 -1.75,1.46875 -1.14063,0.51562 -2.57813,0.51562 -1.81249,0 -3.04686,-0.53125 -1.21875,-0.53125 -1.92188,-1.59375 -0.6875,-1.0625 -0.71875,-2.40625 z m 16.41232,2.82813 0.23437,1.45312 q -0.6875,0.14063 -1.23437,0.14063 -0.89063,0 -1.39063,-0.28125 -0.48437,-0.28125 -0.6875,-0.73438 -0.20312,-0.46875 -0.20312,-1.9375 v -5.57812 h -1.20313 v -1.26563 h 1.20313 v -2.39062 l 1.625,-0.98438 v 3.375 h 1.65625 v 1.26563 h -1.65625 v 5.67187 q 0,0.6875 0.0781,0.89063 0.0937,0.20312 0.28125,0.32812 0.20313,0.10938 0.57813,0.10938 0.26562,0 0.71875,-0.0625 z m 7.91767,0.28125 q -0.92187,0.76562 -1.76562,1.09375 -0.82813,0.3125 -1.79688,0.3125 -1.59375,0 -2.45312,-0.78125 -0.85938,-0.78125 -0.85938,-1.98438 0,-0.71875 0.32813,-1.29687 0.32812,-0.59375 0.84375,-0.9375 0.53125,-0.35938 1.1875,-0.54688 0.46875,-0.125 1.45312,-0.25 1.98438,-0.23437 2.92188,-0.5625 0.0156,-0.34375 0.0156,-0.42187 0,-1 -0.46875,-1.42188 -0.625,-0.54687 -1.875,-0.54687 -1.15625,0 -1.70312,0.40625 -0.54688,0.40625 -0.8125,1.42187 l -1.60938,-0.21875 q 0.21875,-1.01562 0.71875,-1.64062 0.5,-0.64063 1.45313,-0.98438 0.95312,-0.34375 2.1875,-0.34375 1.25,0 2.01562,0.29688 0.78125,0.28125 1.14063,0.73437 0.375,0.4375 0.51562,1.10938 0.0781,0.42187 0.0781,1.51562 v 2.1875 q 0,2.28125 0.10937,2.89063 0.10938,0.59375 0.40625,1.15625 h -1.70312 q -0.26563,-0.51563 -0.32813,-1.1875 z m -0.14062,-3.67188 q -0.89063,0.375 -2.67188,0.625 -1.01562,0.14063 -1.4375,0.32813 -0.42187,0.1875 -0.65625,0.53125 -0.21875,0.34375 -0.21875,0.78125 0,0.65625 0.5,1.09375 0.5,0.4375 1.45313,0.4375 0.9375,0 1.67187,-0.40625 0.75,-0.42188 1.09375,-1.14063 0.26563,-0.5625 0.26563,-1.64062 z m 4.18822,4.85938 v -9.67188 h 1.46875 v 1.46875 q 0.5625,-1.03125 1.03125,-1.35937 0.48437,-0.32813 1.0625,-0.32813 0.82812,0 1.6875,0.53125 l -0.5625,1.51563 q -0.60938,-0.35938 -1.20313,-0.35938 -0.54687,0 -0.96875,0.32813 -0.42187,0.32812 -0.60937,0.89062 -0.28125,0.875 -0.28125,1.92188 v 5.0625 z m 9.80642,-1.46875 0.23438,1.45312 q -0.6875,0.14063 -1.23438,0.14063 -0.89062,0 -1.39062,-0.28125 -0.48438,-0.28125 -0.6875,-0.73438 -0.20313,-0.46875 -0.20313,-1.9375 v -5.57812 h -1.20312 v -1.26563 h 1.20312 v -2.39062 l 1.625,-0.98438 v 3.375 h 1.65625 v 1.26563 h -1.65625 v 5.67187 q 0,0.6875 0.0781,0.89063 0.0937,0.20312 0.28125,0.32812 0.20312,0.10938 0.57812,0.10938 0.26563,0 0.71875,-0.0625 z" />
  </g>
  <path
     style="fill-rule:evenodd;stroke:#bf9000;stroke-width:4;stroke-linecap:butt;stroke-linejoin:round"
     inkscape:connector-curvature="0"
     id="path42"
     d="M 196.98142,362.70235 H 907.62733"
     sodipodi:nodetypes="cc" />
  <path
     style="fill-rule:evenodd;stroke:#ff00ff;stroke-width:4;stroke-linecap:butt;stroke-linejoin:round;stroke-miterlimit:10;stroke-dasharray:none"
     inkscape:connector-curvature="0"
     id="path46"
     d="M 21.760285,362.70235 H 196.98142"
     sodipodi:nodetypes="cc" />
  <path
     style="fill:none;fill-rule:evenodd;stroke:#ff00ff;stroke-width:4;stroke-linecap:butt;stroke-linejoin:round;stroke-miterlimit:10;stroke-dasharray:none"
     inkscape:connector-curvature="0"
     id="path46-1"
     d="M 904.17113,362.70235 H 1079.3922"
     sodipodi:nodetypes="cc" />
  <path
     style="fill:#000000;fill-rule:nonzero"
     inkscape:connector-curvature="0"
     id="path50"
     d="m 801.34807,401.87332 v -13.35937 h 9.65625 v 1.57812 h -7.875 v 4.09375 h 7.375 v 1.5625 h -7.375 v 4.54688 h 8.1875 v 1.57812 z m 12.20923,0 v -9.67187 h 1.46875 v 1.375 q 1.0625,-1.59375 3.07812,-1.59375 0.875,0 1.60938,0.3125 0.73437,0.3125 1.09375,0.82812 0.375,0.5 0.51562,1.20313 0.0937,0.45312 0.0937,1.59375 v 5.95312 H 819.776 v -5.89062 q 0,-1 -0.20313,-1.48438 -0.1875,-0.5 -0.67187,-0.79687 -0.48438,-0.29688 -1.14063,-0.29688 -1.04687,0 -1.8125,0.67188 -0.75,0.65625 -0.75,2.51562 v 5.28125 z m 16.64129,0 v -1.21875 q -0.90625,1.4375 -2.70312,1.4375 -1.15625,0 -2.125,-0.64062 -0.96875,-0.64063 -1.5,-1.78125 -0.53125,-1.14063 -0.53125,-2.625 0,-1.45313 0.48437,-2.625 0.48438,-1.1875 1.4375,-1.8125 0.96875,-0.625 2.17188,-0.625 0.875,0 1.54687,0.375 0.6875,0.35937 1.10938,0.95312 v -4.79687 h 1.64062 v 13.35937 z m -5.17187,-4.82812 q 0,1.85937 0.78125,2.78125 0.78125,0.92187 1.84375,0.92187 1.07812,0 1.82812,-0.875 0.75,-0.89062 0.75,-2.6875 0,-1.98437 -0.76562,-2.90625 -0.76563,-0.9375 -1.89063,-0.9375 -1.07812,0 -1.8125,0.89063 -0.73437,0.89062 -0.73437,2.8125 z" />
  <path
     style="fill:#000000;fill-rule:nonzero"
     inkscape:connector-curvature="0"
     id="path54"
     d="m 468.71847,345.41898 1.65625,-0.14063 q 0.125,1 0.54687,1.64063 0.4375,0.64062 1.34375,1.04687 0.92188,0.39063 2.0625,0.39063 1,0 1.78125,-0.29688 0.78125,-0.29687 1.15625,-0.8125 0.375,-0.53125 0.375,-1.15625 0,-0.625 -0.375,-1.09375 -0.35937,-0.46875 -1.1875,-0.79687 -0.54687,-0.20313 -2.39062,-0.64063 -1.82813,-0.45312 -2.5625,-0.84375 -0.96875,-0.5 -1.4375,-1.23437 -0.46875,-0.75 -0.46875,-1.67188 0,-1 0.57812,-1.875 0.57813,-0.89062 1.67188,-1.34375 1.10937,-0.45312 2.45312,-0.45312 1.48438,0 2.60938,0.48437 1.14062,0.46875 1.75,1.40625 0.60937,0.92188 0.65625,2.09375 l -1.6875,0.125 q -0.14063,-1.26562 -0.9375,-1.90625 -0.78125,-0.65625 -2.3125,-0.65625 -1.60938,0 -2.34375,0.59375 -0.73438,0.59375 -0.73438,1.42188 0,0.71875 0.53125,1.17187 0.5,0.46875 2.65625,0.96875 2.15625,0.48438 2.95313,0.84375 1.17187,0.53125 1.71875,1.35938 0.5625,0.82812 0.5625,1.90625 0,1.0625 -0.60938,2.01562 -0.60937,0.9375 -1.75,1.46875 -1.14062,0.51563 -2.57812,0.51563 -1.8125,0 -3.04688,-0.53125 -1.21875,-0.53125 -1.92187,-1.59375 -0.6875,-1.0625 -0.71875,-2.40625 z m 19.14667,0.75 1.60937,0.21875 q -0.26562,1.65625 -1.35937,2.60937 -1.07813,0.9375 -2.67188,0.9375 -1.98437,0 -3.1875,-1.29687 -1.20312,-1.29688 -1.20312,-3.71875 0,-1.57813 0.51562,-2.75 0.51563,-1.17188 1.57813,-1.75 1.0625,-0.59375 2.3125,-0.59375 1.57812,0 2.57812,0.79687 1,0.79688 1.28125,2.26563 l -1.59375,0.23437 q -0.23437,-0.96875 -0.8125,-1.45312 -0.57812,-0.5 -1.39062,-0.5 -1.23438,0 -2.01563,0.89062 -0.78125,0.89063 -0.78125,2.8125 0,1.95313 0.75,2.84375 0.75,0.875 1.95313,0.875 0.96875,0 1.60937,-0.59375 0.65625,-0.59375 0.82813,-1.82812 z m 9.32812,2.35937 q -0.92187,0.76563 -1.76562,1.09375 -0.82813,0.3125 -1.79688,0.3125 -1.59375,0 -2.45312,-0.78125 -0.85938,-0.78125 -0.85938,-1.98437 0,-0.71875 0.32813,-1.29688 0.32812,-0.59375 0.84375,-0.9375 0.53125,-0.35937 1.1875,-0.54687 0.46875,-0.125 1.45312,-0.25 1.98438,-0.23438 2.92188,-0.5625 0.0156,-0.34375 0.0156,-0.42188 0,-1 -0.46875,-1.42187 -0.625,-0.54688 -1.875,-0.54688 -1.15625,0 -1.70312,0.40625 -0.54688,0.40625 -0.8125,1.42188 l -1.60938,-0.21875 q 0.21875,-1.01563 0.71875,-1.64063 0.5,-0.64062 1.45313,-0.98437 0.95312,-0.34375 2.1875,-0.34375 1.25,0 2.01562,0.29687 0.78125,0.28125 1.14063,0.73438 0.375,0.4375 0.51562,1.10937 0.0781,0.42188 0.0781,1.51563 v 2.1875 q 0,2.28125 0.10937,2.89062 0.10938,0.59375 0.40625,1.15625 h -1.70312 q -0.26563,-0.51562 -0.32813,-1.1875 z m -0.14062,-3.67187 q -0.89063,0.375 -2.67188,0.625 -1.01562,0.14062 -1.4375,0.32812 -0.42187,0.1875 -0.65625,0.53125 -0.21875,0.34375 -0.21875,0.78125 0,0.65625 0.5,1.09375 0.5,0.4375 1.45313,0.4375 0.9375,0 1.67187,-0.40625 0.75,-0.42187 1.09375,-1.14062 0.26563,-0.5625 0.26563,-1.64063 z m 4.20385,4.85937 v -9.67187 h 1.46875 v 1.375 q 1.0625,-1.59375 3.07813,-1.59375 0.875,0 1.60937,0.3125 0.73438,0.3125 1.09375,0.82812 0.375,0.5 0.51563,1.20313 0.0937,0.45312 0.0937,1.59375 v 5.95312 h -1.64063 v -5.89062 q 0,-1 -0.20312,-1.48438 -0.1875,-0.5 -0.67188,-0.79687 -0.48437,-0.29688 -1.14062,-0.29688 -1.04688,0 -1.8125,0.67188 -0.75,0.65625 -0.75,2.51562 v 5.28125 z" />
  <path
     style="fill:#000000;fill-opacity:0;fill-rule:evenodd"
     inkscape:connector-curvature="0"
     id="path56"
     d="M 196.59559,354.74698 V 92.951715" />
  <g
     id="g33542"
     transform="translate(-137.65557)">
    <g
       id="g757"
       transform="translate(120.93843,-18)">
      <path
         style="fill:#000000;fill-rule:nonzero"
         inkscape:connector-curvature="0"
         id="path62"
         d="m 114.76009,402.23392 v -11.78125 h -4.40625 v -1.57813 h 10.57812 v 1.57813 h -4.40625 v 11.78125 z m 12.03009,-1.1875 q -0.92188,0.76562 -1.76563,1.09375 -0.82812,0.3125 -1.79687,0.3125 -1.59375,0 -2.45313,-0.78125 -0.85937,-0.78125 -0.85937,-1.98438 0,-0.71875 0.32812,-1.29687 0.32813,-0.59375 0.84375,-0.9375 0.53125,-0.35938 1.1875,-0.54688 0.46875,-0.125 1.45313,-0.25 1.98437,-0.23437 2.92187,-0.5625 0.0156,-0.34375 0.0156,-0.42187 0,-1 -0.46875,-1.42188 -0.625,-0.54687 -1.875,-0.54687 -1.15625,0 -1.70312,0.40625 -0.54688,0.40625 -0.8125,1.42187 l -1.60938,-0.21875 q 0.21875,-1.01562 0.71875,-1.64062 0.5,-0.64063 1.45313,-0.98438 0.95312,-0.34375 2.1875,-0.34375 1.25,0 2.01562,0.29688 0.78125,0.28125 1.14063,0.73437 0.375,0.4375 0.51562,1.10938 0.0781,0.42187 0.0781,1.51562 v 2.1875 q 0,2.28125 0.10938,2.89063 0.10937,0.59375 0.40625,1.15625 h -1.70314 q -0.26562,-0.51563 -0.32812,-1.1875 z m -0.14063,-3.67188 q -0.89062,0.375 -2.67187,0.625 -1.01563,0.14063 -1.4375,0.32813 -0.42188,0.1875 -0.65625,0.53125 -0.21875,0.34375 -0.21875,0.78125 0,0.65625 0.5,1.09375 0.5,0.4375 1.45312,0.4375 0.9375,0 1.67188,-0.40625 0.75,-0.42188 1.09375,-1.14063 0.26562,-0.5625 0.26562,-1.64062 z m 3.11009,4.85938 3.53125,-5.03125 -3.26562,-4.64063 h 2.04687 l 1.48438,2.26563 q 0.42187,0.64062 0.67187,1.07812 0.40625,-0.59375 0.73438,-1.0625 l 1.64062,-2.28125 h 1.95313 l -3.34375,4.54688 3.59375,5.125 h -2.01563 l -1.98437,-3 -0.51563,-0.8125 -2.54687,3.8125 z m 10.42188,-11.46875 v -1.89063 h 1.64062 v 1.89063 z m 0,11.46875 v -9.67188 h 1.64062 v 9.67188 z" />
    </g>
    <path
       style="fill:#000000;fill-rule:nonzero"
       inkscape:connector-curvature="0"
       id="path64"
       d="m 211.84392,406.63391 v -13.35938 h 4.60937 q 1.54688,0 2.375,0.20313 1.14063,0.25 1.95313,0.95312 1.0625,0.89063 1.57812,2.28125 0.53125,1.39063 0.53125,3.17188 0,1.51562 -0.35937,2.70312 -0.35938,1.17188 -0.92188,1.9375 -0.54687,0.76563 -1.20312,1.21875 -0.65625,0.4375 -1.59375,0.67188 -0.9375,0.21875 -2.14063,0.21875 z m 1.76562,-1.57813 h 2.85938 q 1.3125,0 2.0625,-0.23437 0.75,-0.25 1.20312,-0.70313 0.625,-0.625 0.96875,-1.6875 0.35938,-1.0625 0.35938,-2.57812 0,-2.09375 -0.6875,-3.21875 -0.6875,-1.125 -1.67188,-1.5 -0.70312,-0.28125 -2.28125,-0.28125 h -2.8125 z m 11.5042,-9.89062 v -1.89063 h 1.64062 v 1.89063 z m 0,11.46875 v -9.67188 h 1.64062 v 9.67188 z m 3.48857,-2.89063 1.625,-0.25 q 0.125,0.96875 0.75,1.5 0.625,0.51563 1.75,0.51563 1.125,0 1.67187,-0.45313 0.54688,-0.46875 0.54688,-1.09375 0,-0.54687 -0.48438,-0.875 -0.32812,-0.21875 -1.67187,-0.54687 -1.8125,-0.46875 -2.51563,-0.79688 -0.6875,-0.32812 -1.04687,-0.90625 -0.35938,-0.59375 -0.35938,-1.3125 0,-0.64062 0.29688,-1.1875 0.29687,-0.5625 0.8125,-0.92187 0.375,-0.28125 1.03125,-0.46875 0.67187,-0.20313 1.42187,-0.20313 1.14063,0 2,0.32813 0.85938,0.32812 1.26563,0.89062 0.42187,0.5625 0.57812,1.5 l -1.60937,0.21875 q -0.10938,-0.75 -0.64063,-1.17187 -0.51562,-0.42188 -1.46875,-0.42188 -1.14062,0 -1.625,0.375 -0.46875,0.375 -0.46875,0.875 0,0.3125 0.1875,0.57813 0.20313,0.26562 0.64063,0.4375 0.23437,0.0937 1.4375,0.42187 1.75,0.45313 2.4375,0.75 0.6875,0.29688 1.07812,0.85938 0.39063,0.5625 0.39063,1.40625 0,0.82812 -0.48438,1.54687 -0.46875,0.71875 -1.375,1.125 -0.90625,0.39063 -2.04687,0.39063 -1.875,0 -2.875,-0.78125 -0.98438,-0.78125 -1.25,-2.32813 z m 13.5625,1.42188 0.23437,1.45312 q -0.6875,0.14063 -1.23437,0.14063 -0.89063,0 -1.39063,-0.28125 -0.48437,-0.28125 -0.6875,-0.73438 -0.20312,-0.46875 -0.20312,-1.9375 v -5.57812 h -1.20313 v -1.26563 h 1.20313 v -2.39062 l 1.625,-0.98438 v 3.375 h 1.65625 v 1.26563 h -1.65625 v 5.67187 q 0,0.6875 0.0781,0.89063 0.0937,0.20312 0.28125,0.32812 0.20312,0.10938 0.57812,0.10938 0.26563,0 0.71875,-0.0625 z m 7.91767,0.28125 q -0.92187,0.76562 -1.76562,1.09375 -0.82813,0.3125 -1.79688,0.3125 -1.59374,0 -2.45312,-0.78125 -0.85937,-0.78125 -0.85937,-1.98438 0,-0.71875 0.32812,-1.29687 0.32813,-0.59375 0.84375,-0.9375 0.53125,-0.35938 1.1875,-0.54688 0.46875,-0.125 1.45312,-0.25 1.98438,-0.23437 2.92188,-0.5625 0.0156,-0.34375 0.0156,-0.42187 0,-1 -0.46875,-1.42188 -0.625,-0.54687 -1.875,-0.54687 -1.15625,0 -1.70313,0.40625 -0.54687,0.40625 -0.81249,1.42187 l -1.60938,-0.21875 q 0.21875,-1.01562 0.71875,-1.64062 0.5,-0.64063 1.45312,-0.98438 0.95313,-0.34375 2.1875,-0.34375 1.25,0 2.01563,0.29688 0.78125,0.28125 1.14062,0.73437 0.375,0.4375 0.51563,1.10938 0.0781,0.42187 0.0781,1.51562 v 2.1875 q 0,2.28125 0.10937,2.89063 0.10938,0.59375 0.40625,1.15625 h -1.70312 q -0.26563,-0.51563 -0.32813,-1.1875 z m -0.14062,-3.67188 q -0.89063,0.375 -2.67188,0.625 -1.01562,0.14063 -1.4375,0.32813 -0.42187,0.1875 -0.65624,0.53125 -0.21875,0.34375 -0.21875,0.78125 0,0.65625 0.49999,1.09375 0.5,0.4375 1.45313,0.4375 0.9375,0 1.67187,-0.40625 0.75,-0.42188 1.09375,-1.14063 0.26563,-0.5625 0.26563,-1.64062 z m 4.20384,4.85938 v -9.67188 h 1.46875 v 1.375 q 1.0625,-1.59375 3.07813,-1.59375 0.875,0 1.60937,0.3125 0.73438,0.3125 1.09375,0.82813 0.375,0.5 0.51563,1.20312 0.0937,0.45313 0.0937,1.59375 v 5.95313 h -1.64063 v -5.89063 q 0,-1 -0.20312,-1.48437 -0.1875,-0.5 -0.67188,-0.79688 -0.48437,-0.29687 -1.14062,-0.29687 -1.04688,0 -1.8125,0.67187 -0.75,0.65625 -0.75,2.51563 v 5.28125 z m 16.68822,-3.54688 1.60937,0.21875 q -0.26562,1.65625 -1.35937,2.60938 -1.07813,0.9375 -2.67188,0.9375 -1.98437,0 -3.1875,-1.29688 -1.20312,-1.29687 -1.20312,-3.71875 0,-1.57812 0.51562,-2.75 0.51563,-1.17187 1.57813,-1.75 1.0625,-0.59375 2.3125,-0.59375 1.57812,0 2.57812,0.79688 1,0.79687 1.28125,2.26562 l -1.59375,0.23438 q -0.23437,-0.96875 -0.8125,-1.45313 -0.57812,-0.5 -1.39062,-0.5 -1.23438,0 -2.01563,0.89063 -0.78125,0.89062 -0.78125,2.8125 0,1.95312 0.75,2.84375 0.75,0.875 1.95313,0.875 0.96875,0 1.60937,-0.59375 0.65625,-0.59375 0.82813,-1.82813 z m 9.64062,0.4375 1.6875,0.20313 q -0.40625,1.48437 -1.48437,2.3125 -1.07813,0.8125 -2.76563,0.8125 -2.125,0 -3.375,-1.29688 -1.23437,-1.3125 -1.23437,-3.67187 0,-2.45313 1.25,-3.79688 1.26562,-1.34375 3.26562,-1.34375 1.9375,0 3.15625,1.32813 1.23438,1.3125 1.23438,3.70312 0,0.15625 0,0.4375 h -7.21875 q 0.0937,1.59375 0.90625,2.45313 0.8125,0.84375 2.01562,0.84375 0.90625,0 1.54688,-0.46875 0.64062,-0.48438 1.01562,-1.51563 z m -5.39062,-2.65625 h 5.40625 q -0.10938,-1.21875 -0.625,-1.82812 -0.78125,-0.95313 -2.03125,-0.95313 -1.125,0 -1.90625,0.76563 -0.76563,0.75 -0.84375,2.01562 z" />
  </g>
  <path
     style="fill:none;stroke:#000000;stroke-width:3.1;stroke-linecap:butt;stroke-linejoin:miter;stroke-miterlimit:10;stroke-dasharray:none;stroke-opacity:1"
     d="m 1080.2549,362.69095 83.4974,0.0228"
     id="path1142"
     sodipodi:nodetypes="cc" />
  <path
     style="fill-rule:evenodd;stroke:#bf9000;stroke-width:8;stroke-linecap:butt;stroke-linejoin:round"
     inkscape:connector-curvature="0"
     id="path72"
     d="m 285.24394,341.56848 v 42.26774"
     sodipodi:nodetypes="cc" />
  <path
     style="fill-rule:evenodd;stroke:#6aa84f;stroke-width:8;stroke-linecap:butt;stroke-linejoin:round"
     inkscape:connector-curvature="0"
     id="path76"
     d="m 19.410385,341.56848 v 42.26774"
     sodipodi:nodetypes="cc" />
  <path
     style="fill-rule:evenodd;stroke:#000000;stroke-width:8;stroke-linecap:butt;stroke-linejoin:round"
     inkscape:connector-curvature="0"
     id="path80"
     d="m 196.50152,341.56848 v 42.26774"
     sodipodi:nodetypes="cc" />
  <path
     style="fill-rule:evenodd;stroke:#990000;stroke-width:8;stroke-linecap:butt;stroke-linejoin:round"
     inkscape:connector-curvature="0"
     id="path84"
     d="m 1080.2611,341.56848 v 42.26774" />
  <path
     style="fill-rule:evenodd;stroke:#000000;stroke-width:8;stroke-linecap:butt;stroke-linejoin:round"
     inkscape:connector-curvature="0"
     id="path88"
     d="m 905.43833,341.56849 v 42.26773" />
  <path
     style="fill:#000000;fill-rule:nonzero"
     inkscape:connector-curvature="0"
     id="path96"
     d="m 447.29793,135.07547 h -1.64062 v -10.45313 q -0.59375,0.5625 -1.5625,1.14063 -0.95313,0.5625 -1.71875,0.84375 v -1.59375 q 1.375,-0.64063 2.40625,-1.5625 1.03125,-0.92188 1.45312,-1.78125 h 1.0625 z m 9.96527,0 v -13.35938 h 5.01563 q 1.53125,0 2.45312,0.40625 0.92188,0.40625 1.4375,1.25 0.53125,0.84375 0.53125,1.76563 0,0.85937 -0.46875,1.625 -0.45312,0.75 -1.39062,1.20312 1.20312,0.35938 1.85937,1.21875 0.65625,0.85938 0.65625,2.01563 0,0.9375 -0.40625,1.75 -0.39062,0.79687 -0.98437,1.23437 -0.57813,0.4375 -1.45313,0.67188 -0.875,0.21875 -2.15625,0.21875 z m 1.78125,-7.75 h 2.875 q 1.1875,0 1.6875,-0.14063 0.67188,-0.20312 1.01563,-0.67187 0.34375,-0.46875 0.34375,-1.17188 0,-0.65625 -0.32813,-1.15625 -0.3125,-0.51562 -0.90625,-0.70312 -0.59375,-0.1875 -2.03125,-0.1875 h -2.65625 z m 0,6.17187 h 3.3125 q 0.85938,0 1.20313,-0.0625 0.60937,-0.10937 1.01562,-0.35937 0.42188,-0.26563 0.6875,-0.75 0.26563,-0.48438 0.26563,-1.125 0,-0.75 -0.39063,-1.29688 -0.375,-0.54687 -1.0625,-0.76562 -0.67187,-0.23438 -1.95312,-0.23438 h -3.07813 z m 10.53732,-9.89062 v -1.89063 h 1.64063 v 1.89063 z m 0,11.46875 v -9.67188 h 1.64063 v 9.67188 z m 4.14484,0 v -9.67188 h 1.46875 v 1.375 q 1.0625,-1.59375 3.07813,-1.59375 0.875,0 1.60937,0.3125 0.73438,0.3125 1.09375,0.82813 0.375,0.5 0.51563,1.20312 0.0937,0.45313 0.0937,1.59375 v 5.95313 h -1.64063 v -5.89063 q 0,-1 -0.20312,-1.48437 -0.1875,-0.5 -0.67188,-0.79688 -0.48437,-0.29687 -1.14062,-0.29687 -1.04688,0 -1.8125,0.67187 -0.75,0.65625 -0.75,2.51563 v 5.28125 z" />
  <path
     style="fill:#000000;fill-rule:nonzero"
     inkscape:connector-curvature="0"
     id="path108"
     d="m 266.03474,397.57693 1.65625,-0.14063 q 0.125,1 0.54687,1.64063 0.4375,0.64062 1.34375,1.04687 0.92188,0.39063 2.0625,0.39063 1,0 1.78125,-0.29688 0.78125,-0.29687 1.15625,-0.8125 0.375,-0.53125 0.375,-1.15625 0,-0.625 -0.375,-1.09375 -0.35937,-0.46875 -1.1875,-0.79687 -0.54687,-0.20313 -2.39062,-0.64063 -1.82813,-0.45312 -2.5625,-0.84375 -0.96875,-0.5 -1.4375,-1.23437 -0.46875,-0.75 -0.46875,-1.67188 0,-1 0.57812,-1.875 0.57813,-0.89062 1.67188,-1.34375 1.10937,-0.45312 2.45312,-0.45312 1.48438,0 2.60938,0.48437 1.14062,0.46875 1.75,1.40625 0.60937,0.92188 0.65625,2.09375 l -1.6875,0.125 q -0.14063,-1.26562 -0.9375,-1.90625 -0.78125,-0.65625 -2.3125,-0.65625 -1.60938,0 -2.34375,0.59375 -0.73438,0.59375 -0.73438,1.42188 0,0.71875 0.53125,1.17187 0.5,0.46875 2.65625,0.96875 2.15625,0.48438 2.95313,0.84375 1.17187,0.53125 1.71875,1.35938 0.5625,0.82812 0.5625,1.90625 0,1.0625 -0.60938,2.01562 -0.60937,0.9375 -1.75,1.46875 -1.14062,0.51563 -2.57812,0.51563 -1.8125,0 -3.04688,-0.53125 -1.21875,-0.53125 -1.92187,-1.59375 -0.6875,-1.0625 -0.71875,-2.40625 z m 16.41232,2.82812 0.23438,1.45313 q -0.6875,0.14062 -1.23438,0.14062 -0.89062,0 -1.39062,-0.28125 -0.48438,-0.28125 -0.6875,-0.73437 -0.20313,-0.46875 -0.20313,-1.9375 v -5.57813 h -1.20312 v -1.26562 h 1.20312 v -2.39063 l 1.625,-0.98437 v 3.375 h 1.65625 v 1.26562 h -1.65625 v 5.67188 q 0,0.6875 0.0781,0.89062 0.0937,0.20313 0.28125,0.32813 0.20312,0.10937 0.57812,0.10937 0.26563,0 0.71875,-0.0625 z m 7.91768,0.28125 q -0.92187,0.76563 -1.76562,1.09375 -0.82813,0.3125 -1.79688,0.3125 -1.59375,0 -2.45312,-0.78125 -0.85938,-0.78125 -0.85938,-1.98437 0,-0.71875 0.32813,-1.29688 0.32812,-0.59375 0.84375,-0.9375 0.53125,-0.35937 1.1875,-0.54687 0.46875,-0.125 1.45312,-0.25 1.98438,-0.23438 2.92188,-0.5625 0.0156,-0.34375 0.0156,-0.42188 0,-1 -0.46875,-1.42187 -0.625,-0.54688 -1.875,-0.54688 -1.15625,0 -1.70312,0.40625 -0.54688,0.40625 -0.8125,1.42188 l -1.60938,-0.21875 q 0.21875,-1.01563 0.71875,-1.64063 0.5,-0.64062 1.45313,-0.98437 0.95312,-0.34375 2.1875,-0.34375 1.25,0 2.01562,0.29687 0.78125,0.28125 1.14063,0.73438 0.375,0.4375 0.51562,1.10937 0.0781,0.42188 0.0781,1.51563 v 2.1875 q 0,2.28125 0.10937,2.89062 0.10938,0.59375 0.40625,1.15625 h -1.70312 q -0.26563,-0.51562 -0.32813,-1.1875 z m -0.14062,-3.67187 q -0.89063,0.375 -2.67188,0.625 -1.01562,0.14062 -1.4375,0.32812 -0.42187,0.1875 -0.65625,0.53125 -0.21875,0.34375 -0.21875,0.78125 0,0.65625 0.5,1.09375 0.5,0.4375 1.45313,0.4375 0.9375,0 1.67187,-0.40625 0.75,-0.42187 1.09375,-1.14062 0.26563,-0.5625 0.26563,-1.64063 z m 4.18821,4.85937 v -9.67187 h 1.46875 v 1.46875 q 0.5625,-1.03125 1.03125,-1.35938 0.48438,-0.32812 1.0625,-0.32812 0.82813,0 1.6875,0.53125 l -0.5625,1.51562 q -0.60937,-0.35937 -1.20312,-0.35937 -0.54688,0 -0.96875,0.32812 -0.42188,0.32813 -0.60938,0.89063 -0.28125,0.875 -0.28125,1.92187 v 5.0625 z m 9.80643,-1.46875 0.23438,1.45313 q -0.6875,0.14062 -1.23438,0.14062 -0.89062,0 -1.39062,-0.28125 -0.48438,-0.28125 -0.6875,-0.73437 -0.20313,-0.46875 -0.20313,-1.9375 v -5.57813 h -1.20312 v -1.26562 h 1.20312 v -2.39063 l 1.625,-0.98437 v 3.375 h 1.65625 v 1.26562 h -1.65625 v 5.67188 q 0,0.6875 0.0781,0.89062 0.0937,0.20313 0.28125,0.32813 0.20312,0.10937 0.57812,0.10937 0.26563,0 0.71875,-0.0625 z" />
  <path
     style="fill:#000000;fill-opacity:0;fill-rule:evenodd"
     inkscape:connector-curvature="0"
     id="path110"
     d="M -53.743581,83.993705 H 1047.4848" />
  <path
     style="fill-rule:evenodd;stroke:#000000;stroke-width:4;stroke-linecap:butt;stroke-linejoin:round;stroke-dasharray:4, 12"
     inkscape:connector-curvature="0"
     id="path112"
     d="M 73.307129,83.993705 H 1047.4848"
     sodipodi:nodetypes="cc" />
  <path
     style="fill:none;fill-rule:evenodd;stroke:#00ffff;stroke-width:3;stroke-linecap:butt;stroke-linejoin:round;stroke-miterlimit:10"
     inkscape:connector-curvature="0"
     id="path150-2"
     d="m 905.42143,83.993705 h 43.54808"
     sodipodi:nodetypes="cc" />
  <path
     style="fill:none;fill-rule:evenodd;stroke:#000000;stroke-width:8;stroke-linecap:butt;stroke-linejoin:round;stroke-miterlimit:10"
     inkscape:connector-curvature="0"
     id="path88-0"
     d="m 905.45113,62.85984 v 42.26773" />
  <path
     style="fill:#000000;fill-rule:evenodd;stroke:#000000;stroke-width:4;stroke-linecap:butt"
     inkscape:connector-curvature="0"
     id="path114"
     d="m 79.940959,77.386775 -18.15239,6.60693 18.15239,6.60694 z" />
  <path
     style="fill:#000000;fill-rule:evenodd;stroke:#000000;stroke-width:4;stroke-linecap:butt"
     inkscape:connector-curvature="0"
     id="path116"
     d="m 1044.5503,90.600645 18.1523,-6.60693 -18.1523,-6.60694 z" />
  <path
     style="fill:#000000;fill-rule:nonzero"
     inkscape:connector-curvature="0"
     id="path120"
     d="m 191.75217,45.734655 q 0,-2.35938 0.48438,-3.79688 0.48437,-1.45312 1.4375,-2.23437 0.96875,-0.78125 2.42187,-0.78125 1.07813,0 1.89063,0.4375 0.8125,0.42187 1.32812,1.25 0.53125,0.8125 0.82813,1.98437 0.3125,1.15625 0.3125,3.14063 0,2.35937 -0.48438,3.8125 -0.48437,1.4375 -1.45312,2.23437 -0.95313,0.78125 -2.42188,0.78125 -1.92187,0 -3.03125,-1.39062 -1.3125,-1.67188 -1.3125,-5.4375 z m 1.67188,0 q 0,3.29687 0.76562,4.39062 0.78125,1.07813 1.90625,1.07813 1.14063,0 1.90625,-1.09375 0.76563,-1.09375 0.76563,-4.375 0,-3.29688 -0.76563,-4.375 -0.76562,-1.07813 -1.92187,-1.07813 -1.125,0 -1.79688,0.95313 -0.85937,1.21875 -0.85937,4.5 z" />
  <path
     style="fill:#000000;fill-opacity:0;fill-rule:evenodd"
     inkscape:connector-curvature="0"
     id="path122"
     d="M 165.87906,82.035705 V 21.090827" />
  <path
     style="fill:#000000;fill-opacity:0;fill-rule:evenodd"
     inkscape:connector-curvature="0"
     id="path126"
     d="M -10.397125,20.796855 H 965.28791" />
  <path
     style="fill:#000000;fill-rule:nonzero"
     inkscape:connector-curvature="0"
     id="path136"
     d="M 395.74008,13.359375 V 0 h 9.65625 v 1.578125 h -7.875 v 4.09375 h 7.375 v 1.5625 h -7.375 v 4.546875 h 8.1875 v 1.578125 z m 12.20923,0 V 3.6875 h 1.46875 v 1.375 q 1.0625,-1.59375 3.07812,-1.59375 0.875,0 1.60938,0.3125 0.73437,0.3125 1.09375,0.828125 0.375,0.5 0.51562,1.203125 0.0937,0.453125 0.0937,1.59375 v 5.953125 h -1.64062 V 7.46875 q 0,-1 -0.20313,-1.484375 -0.1875,-0.5 -0.67187,-0.796875 -0.48438,-0.296875 -1.14063,-0.296875 -1.04687,0 -1.8125,0.671875 -0.75,0.65625 -0.75,2.515625 v 5.28125 z m 16.68817,-3.546875 1.60937,0.21875 q -0.26562,1.65625 -1.35937,2.609375 -1.07813,0.9375 -2.67188,0.9375 -1.98437,0 -3.1875,-1.296875 -1.20312,-1.296875 -1.20312,-3.71875 0,-1.578125 0.51562,-2.75 0.51563,-1.171875 1.57813,-1.75 1.0625,-0.59375 2.3125,-0.59375 1.57812,0 2.57812,0.796875 1,0.796875 1.28125,2.265625 l -1.59375,0.234375 q -0.23437,-0.96875 -0.8125,-1.453125 -0.57812,-0.5 -1.39062,-0.5 -1.23438,0 -2.01563,0.890625 -0.78125,0.890625 -0.78125,2.8125 0,1.953125 0.75,2.84375 0.75,0.875 1.95313,0.875 0.96875,0 1.60937,-0.59375 0.65625,-0.59375 0.82813,-1.828125 z m 2.40625,-1.296875 q 0,-2.6875 1.48437,-3.96875 1.25,-1.078125 3.04688,-1.078125 2,0 3.26562,1.3125 1.26563,1.296875 1.26563,3.609375 0,1.859375 -0.5625,2.9375 -0.5625,1.0625 -1.64063,1.65625 -1.0625,0.59375 -2.32812,0.59375 -2.03125,0 -3.28125,-1.296875 -1.25,-1.3125 -1.25,-3.765625 z m 1.6875,0 q 0,1.859375 0.79687,2.796875 0.8125,0.921875 2.04688,0.921875 1.21875,0 2.03125,-0.921875 0.8125,-0.9375 0.8125,-2.84375 0,-1.796875 -0.8125,-2.71875 -0.8125,-0.921875 -2.03125,-0.921875 -1.23438,0 -2.04688,0.921875 -0.79687,0.90625 -0.79687,2.765625 z m 15.56323,4.84375 v -1.21875 q -0.90625,1.4375 -2.70312,1.4375 -1.15625,0 -2.125,-0.640625 -0.96875,-0.640625 -1.5,-1.78125 -0.53125,-1.140625 -0.53125,-2.625 0,-1.453125 0.48437,-2.625 0.48438,-1.1875 1.4375,-1.8125 0.96875,-0.625 2.17188,-0.625 0.875,0 1.54687,0.375 0.6875,0.359375 1.10938,0.953125 V 0 h 1.64062 V 13.359375 Z M 439.12259,8.53125 q 0,1.859375 0.78125,2.78125 0.78125,0.921875 1.84375,0.921875 1.07812,0 1.82812,-0.875 0.75,-0.890625 0.75,-2.6875 0,-1.984375 -0.76562,-2.90625 -0.76563,-0.9375 -1.89063,-0.9375 -1.07812,0 -1.8125,0.890625 -0.73437,0.890625 -0.73437,2.8125 z m 15.90698,1.71875 1.6875,0.203125 q -0.40625,1.484375 -1.48438,2.3125 -1.07812,0.8125 -2.76562,0.8125 -2.125,0 -3.375,-1.296875 -1.23438,-1.3125 -1.23438,-3.671875 0,-2.453125 1.25,-3.796875 1.26563,-1.34375 3.26563,-1.34375 1.9375,0 3.15625,1.328125 1.23437,1.3125 1.23437,3.703125 0,0.15625 0,0.4375 h -7.21875 q 0.0937,1.59375 0.90625,2.453125 0.8125,0.84375 2.01563,0.84375 0.90625,0 1.54687,-0.46875 0.64063,-0.484375 1.01563,-1.515625 z m -5.39063,-2.65625 h 5.40625 Q 454.93582,6.375 454.42019,5.765625 453.63894,4.8125 452.38894,4.8125 q -1.125,0 -1.90625,0.765625 -0.76562,0.75 -0.84375,2.015625 z m 9.12574,5.765625 V 3.6875 h 1.46875 v 1.46875 q 0.5625,-1.03125 1.03125,-1.359375 0.48437,-0.328125 1.0625,-0.328125 0.82812,0 1.6875,0.53125 l -0.5625,1.515625 Q 462.8428,5.15625 462.24905,5.15625 q -0.54687,0 -0.96875,0.328125 -0.42187,0.328125 -0.60937,0.890625 -0.28125,0.875 -0.28125,1.921875 v 5.0625 z m 13.94281,0 L 469.17624,0 h 1.8125 l 2.03125,8.765625 q 0.32812,1.375 0.5625,2.71875 0.5,-2.140625 0.59375,-2.46875 L 476.72311,0 h 2.125 l 1.92188,6.765625 q 0.71875,2.515625 1.03125,4.71875 0.26562,-1.265625 0.67187,-2.890625 L 484.56686,0 h 1.78125 l -3.67187,13.359375 h -1.70313 L 478.16061,3.1875 q -0.35937,-1.28125 -0.42187,-1.5625 -0.20313,0.90625 -0.39063,1.5625 l -2.82812,10.171875 z M 487.78494,1.890625 V 0 h 1.64062 v 1.890625 z m 0,11.46875 V 3.6875 h 1.64062 v 9.671875 z m 4.14477,0 V 3.6875 h 1.46875 v 1.375 q 1.0625,-1.59375 3.07813,-1.59375 0.875,0 1.60937,0.3125 0.73438,0.3125 1.09375,0.828125 0.375,0.5 0.51563,1.203125 0.0937,0.453125 0.0937,1.59375 v 5.953125 h -1.64063 V 7.46875 q 0,-1 -0.20312,-1.484375 -0.1875,-0.5 -0.67188,-0.796875 -0.48437,-0.296875 -1.14062,-0.296875 -1.04688,0 -1.8125,0.671875 -0.75,0.65625 -0.75,2.515625 v 5.28125 z m 16.64136,0 v -1.21875 q -0.90625,1.4375 -2.70312,1.4375 -1.15625,0 -2.125,-0.640625 -0.96875,-0.640625 -1.5,-1.78125 -0.53125,-1.140625 -0.53125,-2.625 0,-1.453125 0.48437,-2.625 0.48438,-1.1875 1.4375,-1.8125 0.96875,-0.625 2.17188,-0.625 0.875,0 1.54687,0.375 0.6875,0.359375 1.10938,0.953125 V 0 h 1.64062 V 13.359375 Z M 503.3992,8.53125 q 0,1.859375 0.78125,2.78125 0.78125,0.921875 1.84375,0.921875 1.07812,0 1.82812,-0.875 0.75,-0.890625 0.75,-2.6875 0,-1.984375 -0.76562,-2.90625 -0.76563,-0.9375 -1.89063,-0.9375 -1.07812,0 -1.8125,0.890625 -0.73437,0.890625 -0.73437,2.8125 z m 8.6726,-0.01563 q 0,-2.6875 1.48438,-3.96875 1.25,-1.078125 3.04687,-1.078125 2,0 3.26563,1.3125 1.26562,1.296875 1.26562,3.609375 0,1.859375 -0.5625,2.9375 -0.5625,1.0625 -1.64062,1.65625 -1.0625,0.59375 -2.32813,0.59375 -2.03125,0 -3.28125,-1.296875 -1.25,-1.3125 -1.25,-3.765625 z m 1.6875,0 q 0,1.859375 0.79688,2.796875 0.8125,0.921875 2.04687,0.921875 1.21875,0 2.03125,-0.921875 0.8125,-0.9375 0.8125,-2.84375 0,-1.796875 -0.8125,-2.71875 -0.8125,-0.921875 -2.03125,-0.921875 -1.23437,0 -2.04687,0.921875 -0.79688,0.90625 -0.79688,2.765625 z m 11.07886,4.84375 -2.96875,-9.671875 h 1.70313 l 1.53125,5.578125 0.57812,2.078125 q 0.0469,-0.15625 0.5,-2 l 1.54688,-5.65625 h 1.6875 l 1.4375,5.609375 0.48437,1.84375 0.5625,-1.859375 1.65625,-5.59375 h 1.59375 l -3.03125,9.671875 h -1.70312 l -1.53125,-5.796875 -0.375,-1.640625 -1.95313,7.4375 z" />
  <path
     style="fill-rule:evenodd;stroke:#000000;stroke-width:1;stroke-linecap:butt;stroke-linejoin:round"
     inkscape:connector-curvature="0"
     id="path140"
     d="M 905.43853,342.5134 V 83.993715" />
  <g
     id="g33550"
     transform="translate(-143.65557,-88.10515)">
    <path
       style="fill:#000000;fill-rule:nonzero"
       inkscape:connector-curvature="0"
       id="path144"
       d="m 1051.9023,402.33337 v -13.35938 h 5.0469 q 1.3281,0 2.0312,0.125 0.9688,0.17188 1.6406,0.64063 0.6719,0.45312 1.0781,1.28125 0.4063,0.82812 0.4063,1.82812 0,1.70313 -1.0937,2.89063 -1.0782,1.17187 -3.9219,1.17187 h -3.4219 v 5.42188 z m 1.7656,-7 h 3.4531 q 1.7188,0 2.4375,-0.64063 0.7188,-0.64062 0.7188,-1.79687 0,-0.84375 -0.4219,-1.4375 -0.4219,-0.59375 -1.125,-0.78125 -0.4375,-0.125 -1.6406,-0.125 h -3.4219 z m 10.0842,2.70312 1.6562,-0.14062 q 0.125,1 0.5469,1.64062 0.4375,0.64063 1.3438,1.04688 0.9218,0.39062 2.0625,0.39062 1,0 1.7812,-0.29687 0.7813,-0.29688 1.1563,-0.8125 0.375,-0.53125 0.375,-1.15625 0,-0.625 -0.375,-1.09375 -0.3594,-0.46875 -1.1875,-0.79688 -0.5469,-0.20312 -2.3907,-0.64062 -1.8281,-0.45313 -2.5625,-0.84375 -0.9687,-0.5 -1.4375,-1.23438 -0.4687,-0.75 -0.4687,-1.67187 0,-1 0.5781,-1.875 0.5781,-0.89063 1.6719,-1.34375 1.1094,-0.45313 2.4531,-0.45313 1.4844,0 2.6094,0.48438 1.1406,0.46875 1.75,1.40625 0.6094,0.92187 0.6562,2.09375 l -1.6875,0.125 q -0.1406,-1.26563 -0.9375,-1.90625 -0.7812,-0.65625 -2.3125,-0.65625 -1.6093,0 -2.3437,0.59375 -0.7344,0.59375 -0.7344,1.42187 0,0.71875 0.5313,1.17188 0.5,0.46875 2.6562,0.96875 2.1563,0.48437 2.9531,0.84375 1.1719,0.53125 1.7188,1.35937 0.5625,0.82813 0.5625,1.90625 0,1.0625 -0.6094,2.01563 -0.6094,0.9375 -1.75,1.46875 -1.1406,0.51562 -2.5781,0.51562 -1.8125,0 -3.0469,-0.53125 -1.2187,-0.53125 -1.9219,-1.59375 -0.6875,-1.0625 -0.7187,-2.40625 z m 12.5061,-2.20312 q 0,-3.32813 1.7812,-5.20313 1.7813,-1.89062 4.6094,-1.89062 1.8438,0 3.3281,0.89062 1.4844,0.875 2.2657,2.46875 0.7812,1.57813 0.7812,3.57813 0,2.03125 -0.8281,3.64062 -0.8125,1.59375 -2.3125,2.42188 -1.5,0.82812 -3.25,0.82812 -1.875,0 -3.3594,-0.90625 -1.4844,-0.92187 -2.25,-2.5 -0.7656,-1.57812 -0.7656,-3.32812 z m 1.8125,0.0156 q 0,2.42187 1.2969,3.8125 1.2968,1.39062 3.2656,1.39062 2,0 3.2812,-1.40625 1.2813,-1.40625 1.2813,-3.98437 0,-1.625 -0.5469,-2.84375 -0.5469,-1.21875 -1.6094,-1.875 -1.0625,-0.67188 -2.375,-0.67188 -1.8906,0 -3.25,1.29688 -1.3437,1.28125 -1.3437,4.28125 z" />
    <path
       style="fill:#000000;fill-rule:nonzero"
       inkscape:connector-curvature="0"
       id="path146"
       d="m 1055.0353,424.7334 v -13.35938 h 9.6563 v 1.57813 h -7.875 v 4.09375 h 7.375 v 1.5625 h -7.375 v 4.54687 h 8.1875 v 1.57813 z m 12.2092,0 v -9.67188 h 1.4688 v 1.375 q 1.0625,-1.59375 3.0781,-1.59375 0.875,0 1.6094,0.3125 0.7344,0.3125 1.0937,0.82813 0.375,0.5 0.5157,1.20312 0.094,0.45313 0.094,1.59375 v 5.95313 h -1.6406 v -5.89063 q 0,-1 -0.2031,-1.48437 -0.1875,-0.5 -0.6719,-0.79688 -0.4844,-0.29687 -1.1406,-0.29687 -1.0469,0 -1.8125,0.67187 -0.75,0.65625 -0.75,2.51563 v 5.28125 z m 16.6414,0 v -1.21875 q -0.9063,1.4375 -2.7031,1.4375 -1.1563,0 -2.125,-0.64063 -0.9688,-0.64062 -1.5,-1.78125 -0.5313,-1.14062 -0.5313,-2.625 0,-1.45312 0.4844,-2.625 0.4844,-1.1875 1.4375,-1.8125 0.9687,-0.625 2.1719,-0.625 0.875,0 1.5468,0.375 0.6875,0.35938 1.1094,0.95313 v -4.79688 h 1.6406 v 13.35938 z m -5.1719,-4.82813 q 0,1.85938 0.7813,2.78125 0.7812,0.92188 1.8437,0.92188 1.0781,0 1.8281,-0.875 0.75,-0.89063 0.75,-2.6875 0,-1.98438 -0.7656,-2.90625 -0.7656,-0.9375 -1.8906,-0.9375 -1.0781,0 -1.8125,0.89062 -0.7344,0.89063 -0.7344,2.8125 z" />
  </g>
  <path
     style="fill-rule:evenodd;stroke:#00ffff;stroke-width:3;stroke-linecap:butt;stroke-linejoin:round"
     inkscape:connector-curvature="0"
     id="path150"
     d="m 153.32302,83.993705 h 43.54816"
     sodipodi:nodetypes="cc" />
  <path
     style="fill-rule:evenodd;stroke:#9900ff;stroke-width:4;stroke-linecap:round;stroke-linejoin:round"
     inkscape:connector-curvature="0"
     id="path124"
     d="M 153.87906,84.009356 V 20.826391"
     sodipodi:nodetypes="cc" />
  <path
     style="fill-rule:evenodd;stroke:#000000;stroke-width:8;stroke-linecap:butt;stroke-linejoin:round"
     inkscape:connector-curvature="0"
     id="path158"
     d="M 196.50152,63.023905 V 105.29163" />
  <path
     style="fill:#000000;fill-rule:nonzero"
     inkscape:connector-curvature="0"
     id="path162"
     d="m 917.79633,108.93471 -3.5312,-13.359385 h 1.8125 l 2.0312,8.765635 q 0.3281,1.375 0.5625,2.71875 0.5,-2.14063 0.5938,-2.46875 l 2.5468,-9.015635 h 2.125 l 1.9219,6.765635 q 0.7188,2.51562 1.0313,4.71875 0.2656,-1.26563 0.6718,-2.89063 l 2.0938,-8.593755 h 1.7812 l -3.6718,13.359385 h -1.7032 l -2.8125,-10.171885 q -0.3593,-1.28125 -0.4218,-1.5625 -0.2032,0.90625 -0.3907,1.5625 l -2.8281,10.171885 z m 15.0774,-11.468755 v -1.89063 h 1.6406 v 1.89063 z m 0,11.468755 v -9.671885 h 1.6406 v 9.671885 z m 4.1449,0 v -9.671885 h 1.4687 v 1.375005 q 1.0625,-1.593755 3.0782,-1.593755 0.875,0 1.6093,0.3125 0.7344,0.3125 1.0938,0.828135 0.375,0.5 0.5156,1.20312 0.094,0.45313 0.094,1.59375 v 5.95313 h -1.6407 v -5.89063 q 0,-1 -0.2031,-1.48437 -0.1875,-0.5 -0.6719,-0.79688 -0.4843,-0.29687 -1.1406,-0.29687 -1.0469,0 -1.8125,0.67187 -0.75,0.65625 -0.75,2.51563 v 5.28125 z m 16.64128,0 v -1.21875 q -0.9062,1.4375 -2.7031,1.4375 -1.1562,0 -2.125,-0.64063 -0.9687,-0.64062 -1.5,-1.78125 -0.5312,-1.14062 -0.5312,-2.625 0,-1.45312 0.4843,-2.625 0.4844,-1.1875 1.4375,-1.812505 0.9688,-0.625 2.1719,-0.625 0.875,0 1.5469,0.375 0.6875,0.35938 1.1094,0.953135 v -4.796885 h 1.6406 v 13.359385 z m -5.1718,-4.82813 q 0,1.85938 0.7812,2.78125 0.7813,0.92188 1.8438,0.92188 1.0781,0 1.8281,-0.875 0.75,-0.89063 0.75,-2.6875 0,-1.98438 -0.7656,-2.90625 -0.7657,-0.9375 -1.8907,-0.9375 -1.0781,0 -1.8125,0.89062 -0.7343,0.89063 -0.7343,2.8125 z m 8.6726,-0.0156 q 0,-2.6875 1.4844,-3.96875 1.25,-1.078135 3.0468,-1.078135 2,0 3.2657,1.312505 1.2656,1.29688 1.2656,3.60938 0,1.85937 -0.5625,2.9375 -0.5625,1.0625 -1.6406,1.65625 -1.0625,0.59375 -2.3282,0.59375 -2.0312,0 -3.2812,-1.29688 -1.25,-1.3125 -1.25,-3.76562 z m 1.6875,0 q 0,1.85937 0.7969,2.79687 0.8125,0.92188 2.0468,0.92188 1.2188,0 2.0313,-0.92188 0.8125,-0.9375 0.8125,-2.84375 0,-1.79687 -0.8125,-2.71875 -0.8125,-0.92187 -2.0313,-0.92187 -1.2343,0 -2.0468,0.92187 -0.7969,0.90625 -0.7969,2.76563 z m 11.0787,4.84375 -2.9687,-9.671885 h 1.7031 l 1.5312,5.578135 0.5782,2.07812 q 0.047,-0.15625 0.5,-2 l 1.5468,-5.656255 h 1.6875 l 1.4375,5.609385 0.4844,1.84375 0.5625,-1.85938 1.6563,-5.593755 h 1.5937 l -3.0312,9.671885 h -1.7032 l -1.5312,-5.79688 -0.375,-1.64062 -1.9531,7.4375 z m 17,0 V 95.575345 h 5.01556 q 1.5313,0 2.4532,0.40625 0.9218,0.40625 1.4375,1.25 0.5312,0.84375 0.5312,1.76563 0,0.85937 -0.4687,1.625005 -0.4532,0.75 -1.3907,1.20312 1.2032,0.35938 1.8594,1.21875 0.6563,0.85938 0.6563,2.01563 0,0.9375 -0.4063,1.75 -0.3906,0.79687 -0.9844,1.23437 -0.5781,0.4375 -1.4531,0.67188 -0.875,0.21875 -2.1562,0.21875 z m 1.7813,-7.75 h 2.87496 q 1.1875,0 1.6875,-0.14063 0.6718,-0.20312 1.0156,-0.67187 0.3437,-0.468755 0.3437,-1.171885 0,-0.65625 -0.3281,-1.15625 -0.3125,-0.51562 -0.9062,-0.70312 -0.5938,-0.1875 -2.0313,-0.1875 h -2.65616 z m 0,6.17187 h 3.31246 q 0.8593,0 1.2031,-0.0625 0.6094,-0.10937 1.0156,-0.35937 0.4219,-0.26563 0.6875,-0.75 0.2656,-0.48438 0.2656,-1.125 0,-0.75 -0.3906,-1.29688 -0.375,-0.54687 -1.0625,-0.76562 -0.6719,-0.23438 -1.9531,-0.23438 h -3.07806 z m 16.86539,1.57813 v -1.42188 q -1.125,1.64063 -3.0625,1.64063 -0.8593,0 -1.6093,-0.32813 -0.7344,-0.32812 -1.09383,-0.82812 -0.3594,-0.5 -0.5,-1.21875 -0.1094,-0.46875 -0.1094,-1.53125 v -5.984385 h 1.64073 v 5.359385 q 0,1.28125 0.1093,1.73437 0.1563,0.64063 0.6563,1.01563 0.5,0.375 1.2344,0.375 0.7343,0 1.375,-0.375 0.6562,-0.39063 0.9218,-1.03125 0.2657,-0.65625 0.2657,-1.89063 v -5.187505 h 1.6406 v 9.671885 z m 4.4383,0 v -8.40625 h -1.4531 v -1.265635 h 1.4531 v -1.03125 q 0,-0.96875 0.1719,-1.45312 0.2343,-0.64063 0.8281,-1.03125 0.5937,-0.39063 1.6719,-0.39063 0.6875,0 1.5312,0.15625 l -0.25,1.4375 q -0.5,-0.0937 -0.9531,-0.0937 -0.75,0 -1.0625,0.32813 -0.3125,0.3125 -0.3125,1.1875 v 0.89062 h 1.8906 v 1.265635 h -1.8906 v 8.40625 z m 4.846,0 v -8.40625 h -1.4531 v -1.265635 h 1.4531 v -1.03125 q 0,-0.96875 0.1719,-1.45312 0.2344,-0.64063 0.8281,-1.03125 0.5938,-0.39063 1.6719,-0.39063 0.6875,0 1.5313,0.15625 l -0.25,1.4375 q -0.5,-0.0937 -0.9532,-0.0937 -0.75,0 -1.0625,0.32813 -0.3125,0.3125 -0.3125,1.1875 v 0.89062 h 1.8907 v 1.265635 h -1.8907 v 8.40625 z m 11.4178,-3.10938 1.6875,0.20313 q -0.4063,1.48437 -1.4844,2.3125 -1.0781,0.8125 -2.7656,0.8125 -2.125,0 -3.375,-1.29688 -1.2344,-1.3125 -1.2344,-3.67187 0,-2.45313 1.25,-3.79688 1.2656,-1.343755 3.2656,-1.343755 1.9375,0 3.1563,1.328135 1.2343,1.3125 1.2343,3.70312 0,0.15625 0,0.4375 h -7.2187 q 0.094,1.59375 0.9062,2.45313 0.8125,0.84375 2.0157,0.84375 0.9062,0 1.5468,-0.46875 0.6407,-0.48438 1.0157,-1.51563 z m -5.3907,-2.65625 h 5.4063 q -0.1094,-1.21875 -0.625,-1.82812 -0.7813,-0.95313 -2.0313,-0.95313 -1.125,0 -1.9062,0.76563 -0.7656,0.75 -0.8438,2.01562 z m 9.1257,5.76563 v -9.671885 h 1.4687 v 1.468755 q 0.5625,-1.031255 1.0313,-1.359375 0.4843,-0.32813 1.0625,-0.32813 0.8281,0 1.6875,0.53125 l -0.5625,1.515635 q -0.6094,-0.35938 -1.2032,-0.35938 -0.5468,0 -0.9687,0.32813 -0.4219,0.32812 -0.6094,0.89062 -0.2812,0.875 -0.2812,1.92188 v 5.0625 z" />
  <path
     style="fill:#000000;fill-rule:nonzero"
     inkscape:connector-curvature="0"
     id="path166"
     d="m 1075.8987,90.632335 v -13.35938 h 9.6563 v 1.57813 h -7.875 v 4.09375 h 7.375 v 1.5625 h -7.375 v 4.54687 h 8.1875 v 1.57813 z m 12.2092,0 v -9.67188 h 1.4688 v 1.375 q 1.0625,-1.59375 3.0781,-1.59375 0.875,0 1.6094,0.3125 0.7344,0.3125 1.0937,0.82813 0.375,0.5 0.5157,1.20312 0.094,0.45313 0.094,1.59375 v 5.95313 h -1.6406 v -5.89063 q 0,-1 -0.2031,-1.48437 -0.1875,-0.5 -0.6719,-0.79688 -0.4844,-0.29687 -1.1406,-0.29687 -1.0469,0 -1.8125,0.67187 -0.75,0.65625 -0.75,2.51563 v 5.28125 z m 16.6883,-3.54688 1.6093,0.21875 q -0.2656,1.65625 -1.3593,2.60938 -1.0782,0.9375 -2.6719,0.9375 -1.9844,0 -3.1875,-1.29688 -1.2031,-1.29687 -1.2031,-3.71875 0,-1.57812 0.5156,-2.75 0.5156,-1.17187 1.5781,-1.75 1.0625,-0.59375 2.3125,-0.59375 1.5781,0 2.5781,0.79688 1,0.79687 1.2813,2.26562 l -1.5938,0.23438 q -0.2343,-0.96875 -0.8125,-1.45313 -0.5781,-0.5 -1.3906,-0.5 -1.2344,0 -2.0156,0.89063 -0.7813,0.89062 -0.7813,2.8125 0,1.95312 0.75,2.84375 0.75,0.875 1.9532,0.875 0.9687,0 1.6093,-0.59375 0.6563,-0.59375 0.8282,-1.82813 z m 2.4062,-1.29687 q 0,-2.6875 1.4844,-3.96875 1.25,-1.07813 3.0469,-1.07813 2,0 3.2656,1.3125 1.2656,1.29688 1.2656,3.60938 0,1.85937 -0.5625,2.9375 -0.5625,1.0625 -1.6406,1.65625 -1.0625,0.59375 -2.3281,0.59375 -2.0313,0 -3.2813,-1.29688 -1.25,-1.3125 -1.25,-3.76562 z m 1.6875,0 q 0,1.85937 0.7969,2.79687 0.8125,0.92188 2.0469,0.92188 1.2187,0 2.0312,-0.92188 0.8125,-0.9375 0.8125,-2.84375 0,-1.79687 -0.8125,-2.71875 -0.8125,-0.92187 -2.0312,-0.92187 -1.2344,0 -2.0469,0.92187 -0.7969,0.90625 -0.7969,2.76563 z m 15.5631,4.84375 v -1.21875 q -0.9062,1.4375 -2.7031,1.4375 -1.1563,0 -2.125,-0.64063 -0.9688,-0.64062 -1.5,-1.78125 -0.5313,-1.14062 -0.5313,-2.625 0,-1.45312 0.4844,-2.625 0.4844,-1.1875 1.4375,-1.8125 0.9688,-0.625 2.1719,-0.625 0.875,0 1.5469,0.375 0.6875,0.35938 1.1093,0.95313 v -4.79688 h 1.6407 v 13.35938 z m -5.1719,-4.82813 q 0,1.85938 0.7813,2.78125 0.7812,0.92188 1.8437,0.92188 1.0782,0 1.8282,-0.875 0.75,-0.89063 0.75,-2.6875 0,-1.98438 -0.7657,-2.90625 -0.7656,-0.9375 -1.8906,-0.9375 -1.0781,0 -1.8125,0.89062 -0.7344,0.89063 -0.7344,2.8125 z m 15.907,1.71875 1.6875,0.20313 q -0.4062,1.48437 -1.4843,2.3125 -1.0782,0.8125 -2.7657,0.8125 -2.125,0 -3.375,-1.29688 -1.2343,-1.3125 -1.2343,-3.67187 0,-2.45313 1.25,-3.79688 1.2656,-1.34375 3.2656,-1.34375 1.9375,0 3.1562,1.32813 1.2344,1.3125 1.2344,3.70312 0,0.15625 0,0.4375 h -7.2187 q 0.094,1.59375 0.9062,2.45313 0.8125,0.84375 2.0156,0.84375 0.9063,0 1.5469,-0.46875 0.6406,-0.48438 1.0156,-1.51563 z m -5.3906,-2.65625 h 5.4063 q -0.1094,-1.21875 -0.625,-1.82812 -0.7813,-0.95313 -2.0313,-0.95313 -1.125,0 -1.9062,0.76563 -0.7657,0.75 -0.8438,2.01562 z m 9.1257,5.76563 v -9.67188 h 1.4688 v 1.46875 q 0.5625,-1.03125 1.0312,-1.35937 0.4844,-0.32813 1.0625,-0.32813 0.8282,0 1.6875,0.53125 l -0.5625,1.51563 q -0.6093,-0.35938 -1.2031,-0.35938 -0.5469,0 -0.9687,0.32813 -0.4219,0.32812 -0.6094,0.89062 -0.2813,0.875 -0.2813,1.92188 v 5.0625 z m 21.146,-4.6875 1.7657,0.45312 q -0.5625,2.17188 -2,3.32813 -1.4375,1.14062 -3.5313,1.14062 -2.1562,0 -3.5156,-0.875 -1.3438,-0.89062 -2.0625,-2.54687 -0.7031,-1.67188 -0.7031,-3.59375 0,-2.07813 0.7968,-3.625 0.7969,-1.5625 2.2657,-2.35938 1.4843,-0.8125 3.25,-0.8125 2,0 3.3593,1.01563 1.375,1.01562 1.9063,2.875 l -1.7344,0.40625 q -0.4687,-1.45313 -1.3594,-2.10938 -0.875,-0.67187 -2.2031,-0.67187 -1.5469,0 -2.5781,0.73437 -1.0313,0.73438 -1.4531,1.98438 -0.4219,1.23437 -0.4219,2.5625 0,1.70312 0.5,2.96875 0.5,1.26562 1.5469,1.90625 1.0468,0.625 2.2656,0.625 1.4844,0 2.5156,-0.85938 1.0313,-0.85937 1.3906,-2.54687 z m 3.1292,-0.15625 q 0,-2.6875 1.4844,-3.96875 1.25,-1.07813 3.0468,-1.07813 2,0 3.2657,1.3125 1.2656,1.29688 1.2656,3.60938 0,1.85937 -0.5625,2.9375 -0.5625,1.0625 -1.6406,1.65625 -1.0625,0.59375 -2.3282,0.59375 -2.0312,0 -3.2812,-1.29688 -1.25,-1.3125 -1.25,-3.76562 z m 1.6875,0 q 0,1.85937 0.7969,2.79687 0.8125,0.92188 2.0468,0.92188 1.2188,0 2.0313,-0.92188 0.8125,-0.9375 0.8125,-2.84375 0,-1.79687 -0.8125,-2.71875 -0.8125,-0.92187 -2.0313,-0.92187 -1.2343,0 -2.0468,0.92187 -0.7969,0.90625 -0.7969,2.76563 z m 15.6257,4.84375 v -1.42188 q -1.125,1.64063 -3.0625,1.64063 -0.8594,0 -1.6094,-0.32813 -0.7343,-0.32812 -1.0937,-0.82812 -0.3594,-0.5 -0.5,-1.21875 -0.1094,-0.46875 -0.1094,-1.53125 v -5.98438 h 1.6406 v 5.35938 q 0,1.28125 0.1094,1.73437 0.1563,0.64063 0.6563,1.01563 0.5,0.375 1.2343,0.375 0.7344,0 1.375,-0.375 0.6563,-0.39063 0.9219,-1.03125 0.2656,-0.65625 0.2656,-1.89063 v -5.1875 h 1.6407 v 9.67188 z m 4.0476,0 v -9.67188 h 1.4688 v 1.375 q 1.0625,-1.59375 3.0781,-1.59375 0.875,0 1.6094,0.3125 0.7343,0.3125 1.0937,0.82813 0.375,0.5 0.5156,1.20312 0.094,0.45313 0.094,1.59375 v 5.95313 h -1.6406 v -5.89063 q 0,-1 -0.2032,-1.48437 -0.1875,-0.5 -0.6718,-0.79688 -0.4844,-0.29687 -1.1407,-0.29687 -1.0468,0 -1.8125,0.67187 -0.75,0.65625 -0.75,2.51563 v 5.28125 z m 13.9539,-1.46875 0.2344,1.45312 q -0.6875,0.14063 -1.2344,0.14063 -0.8906,0 -1.3906,-0.28125 -0.4844,-0.28125 -0.6875,-0.73438 -0.2032,-0.46875 -0.2032,-1.9375 v -5.57812 h -1.2031 v -1.26563 h 1.2031 v -2.39062 l 1.625,-0.98438 v 3.375 h 1.6563 v 1.26563 h -1.6563 v 5.67187 q 0,0.6875 0.078,0.89063 0.094,0.20312 0.2812,0.32812 0.2031,0.10938 0.5781,0.10938 0.2657,0 0.7188,-0.0625 z" />
  <path
     style="fill:#000000;fill-rule:nonzero"
     inkscape:connector-curvature="0"
     id="path170"
     d="m 1182.0859,369.27267 v -13.35938 h 5.0469 q 1.3281,0 2.0312,0.125 0.9688,0.17188 1.6407,0.64063 0.6718,0.45312 1.0781,1.28125 0.4062,0.82812 0.4062,1.82812 0,1.70313 -1.0937,2.89063 -1.0781,1.17187 -3.9219,1.17187 h -3.4219 v 5.42188 z m 1.7656,-7 h 3.4532 q 1.7187,0 2.4375,-0.64063 0.7187,-0.64062 0.7187,-1.79687 0,-0.84375 -0.4219,-1.4375 -0.4218,-0.59375 -1.125,-0.78125 -0.4375,-0.125 -1.6406,-0.125 h -3.4219 z m 9.8654,2.15625 q 0,-2.6875 1.4844,-3.96875 1.25,-1.07813 3.0468,-1.07813 2,0 3.2657,1.3125 1.2656,1.29688 1.2656,3.60938 0,1.85937 -0.5625,2.9375 -0.5625,1.0625 -1.6406,1.65625 -1.0625,0.59375 -2.3282,0.59375 -2.0312,0 -3.2812,-1.29688 -1.25,-1.3125 -1.25,-3.76562 z m 1.6875,0 q 0,1.85937 0.7969,2.79687 0.8125,0.92188 2.0468,0.92188 1.2188,0 2.0313,-0.92188 0.8125,-0.9375 0.8125,-2.84375 0,-1.79687 -0.8125,-2.71875 -0.8125,-0.92187 -2.0313,-0.92187 -1.2343,0 -2.0468,0.92187 -0.7969,0.90625 -0.7969,2.76563 z m 8.6413,1.95312 1.625,-0.25 q 0.125,0.96875 0.75,1.5 0.625,0.51563 1.75,0.51563 1.125,0 1.6719,-0.45313 0.5469,-0.46875 0.5469,-1.09375 0,-0.54687 -0.4844,-0.875 -0.3281,-0.21875 -1.6719,-0.54687 -1.8125,-0.46875 -2.5156,-0.79688 -0.6875,-0.32812 -1.0469,-0.90625 -0.3593,-0.59375 -0.3593,-1.3125 0,-0.64062 0.2968,-1.1875 0.2969,-0.5625 0.8125,-0.92187 0.375,-0.28125 1.0313,-0.46875 0.6719,-0.20313 1.4219,-0.20313 1.1406,0 2,0.32813 0.8593,0.32812 1.2656,0.89062 0.4219,0.5625 0.5781,1.5 l -1.6094,0.21875 q -0.1093,-0.75 -0.6406,-1.17187 -0.5156,-0.42188 -1.4687,-0.42188 -1.1407,0 -1.625,0.375 -0.4688,0.375 -0.4688,0.875 0,0.3125 0.1875,0.57813 0.2031,0.26562 0.6406,0.4375 0.2344,0.0937 1.4375,0.42187 1.75,0.45313 2.4375,0.75 0.6875,0.29688 1.0782,0.85938 0.3906,0.5625 0.3906,1.40625 0,0.82812 -0.4844,1.54687 -0.4687,0.71875 -1.375,1.125 -0.9062,0.39063 -2.0469,0.39063 -1.875,0 -2.875,-0.78125 -0.9843,-0.78125 -1.25,-2.32813 z m 9.9844,-8.57812 v -1.89063 h 1.6406 v 1.89063 z m 0,11.46875 v -9.67188 h 1.6406 v 9.67188 z m 7.723,-1.46875 0.2344,1.45312 q -0.6875,0.14063 -1.2344,0.14063 -0.8906,0 -1.3906,-0.28125 -0.4844,-0.28125 -0.6875,-0.73438 -0.2031,-0.46875 -0.2031,-1.9375 v -5.57812 h -1.2031 v -1.26563 h 1.2031 v -2.39062 l 1.625,-0.98438 v 3.375 h 1.6562 v 1.26563 h -1.6562 v 5.67187 q 0,0.6875 0.078,0.89063 0.094,0.20312 0.2813,0.32812 0.2031,0.10938 0.5781,0.10938 0.2656,0 0.7187,-0.0625 z m 1.6051,-10 v -1.89063 h 1.6407 v 1.89063 z m 0,11.46875 v -9.67188 h 1.6407 v 9.67188 z m 3.5356,-4.84375 q 0,-2.6875 1.4843,-3.96875 1.25,-1.07813 3.0469,-1.07813 2,0 3.2656,1.3125 1.2657,1.29688 1.2657,3.60938 0,1.85937 -0.5625,2.9375 -0.5625,1.0625 -1.6407,1.65625 -1.0625,0.59375 -2.3281,0.59375 -2.0312,0 -3.2812,-1.29688 -1.25,-1.3125 -1.25,-3.76562 z m 1.6875,0 q 0,1.85937 0.7968,2.79687 0.8125,0.92188 2.0469,0.92188 1.2188,0 2.0313,-0.92188 0.8125,-0.9375 0.8125,-2.84375 0,-1.79687 -0.8125,-2.71875 -0.8125,-0.92187 -2.0313,-0.92187 -1.2344,0 -2.0469,0.92187 -0.7968,0.90625 -0.7968,2.76563 z m 9.2976,4.84375 v -9.67188 h 1.4687 v 1.375 q 1.0625,-1.59375 3.0781,-1.59375 0.875,0 1.6094,0.3125 0.7344,0.3125 1.0938,0.82813 0.375,0.5 0.5156,1.20312 0.094,0.45313 0.094,1.59375 v 5.95313 h -1.6406 v -5.89063 q 0,-1 -0.2031,-1.48437 -0.1875,-0.5 -0.6719,-0.79688 -0.4844,-0.29687 -1.1406,-0.29687 -1.0469,0 -1.8125,0.67187 -0.75,0.65625 -0.75,2.51563 v 5.28125 z" />
  <path
     style="fill:#000000;fill-rule:nonzero"
     inkscape:connector-curvature="0"
     id="path174"
     d="m 1085.8987,271.33051 v -13.35938 h 5.0469 q 1.3281,0 2.0312,0.125 0.9688,0.17188 1.6406,0.64063 0.6719,0.45312 1.0782,1.28125 0.4062,0.82812 0.4062,1.82812 0,1.70313 -1.0937,2.89063 -1.0782,1.17187 -3.9219,1.17187 h -3.4219 v 5.42188 z m 1.7656,-7 h 3.4531 q 1.7188,0 2.4375,-0.64063 0.7188,-0.64062 0.7188,-1.79687 0,-0.84375 -0.4219,-1.4375 -0.4219,-0.59375 -1.125,-0.78125 -0.4375,-0.125 -1.6406,-0.125 h -3.4219 z m 10.0841,2.70312 1.6563,-0.14062 q 0.125,1 0.5469,1.64062 0.4375,0.64063 1.3437,1.04688 0.9219,0.39062 2.0625,0.39062 1,0 1.7813,-0.29687 0.7812,-0.29688 1.1562,-0.8125 0.375,-0.53125 0.375,-1.15625 0,-0.625 -0.375,-1.09375 -0.3594,-0.46875 -1.1875,-0.79688 -0.5469,-0.20312 -2.3906,-0.64062 -1.8281,-0.45313 -2.5625,-0.84375 -0.9688,-0.5 -1.4375,-1.23438 -0.4688,-0.75 -0.4688,-1.67187 0,-1 0.5782,-1.875 0.5781,-0.89063 1.6718,-1.34375 1.1094,-0.45313 2.4532,-0.45313 1.4843,0 2.6093,0.48438 1.1407,0.46875 1.75,1.40625 0.6094,0.92187 0.6563,2.09375 l -1.6875,0.125 q -0.1406,-1.26563 -0.9375,-1.90625 -0.7813,-0.65625 -2.3125,-0.65625 -1.6094,0 -2.3438,0.59375 -0.7343,0.59375 -0.7343,1.42187 0,0.71875 0.5312,1.17188 0.5,0.46875 2.6563,0.96875 2.1562,0.48437 2.9531,0.84375 1.1719,0.53125 1.7187,1.35937 0.5625,0.82813 0.5625,1.90625 0,1.0625 -0.6093,2.01563 -0.6094,0.9375 -1.75,1.46875 -1.1407,0.51562 -2.5782,0.51562 -1.8125,0 -3.0468,-0.53125 -1.2188,-0.53125 -1.9219,-1.59375 -0.6875,-1.0625 -0.7188,-2.40625 z m 12.5061,-2.20312 q 0,-3.32813 1.7813,-5.20313 1.7812,-1.89062 4.6094,-1.89062 1.8437,0 3.3281,0.89062 1.4844,0.875 2.2656,2.46875 0.7813,1.57813 0.7813,3.57813 0,2.03125 -0.8282,3.64062 -0.8125,1.59375 -2.3125,2.42188 -1.5,0.82812 -3.25,0.82812 -1.875,0 -3.3593,-0.90625 -1.4844,-0.92187 -2.25,-2.5 -0.7657,-1.57812 -0.7657,-3.32812 z m 1.8125,0.0156 q 0,2.42187 1.2969,3.8125 1.2969,1.39062 3.2656,1.39062 2,0 3.2813,-1.40625 1.2812,-1.40625 1.2812,-3.98437 0,-1.625 -0.5468,-2.84375 -0.5469,-1.21875 -1.6094,-1.875 -1.0625,-0.67188 -2.375,-0.67188 -1.8906,0 -3.25,1.29688 -1.3438,1.28125 -1.3438,4.28125 z m 18.4135,6.48437 v -13.35937 h 5.0469 q 1.3281,0 2.0312,0.125 0.9688,0.17187 1.6406,0.64062 0.6719,0.45313 1.0782,1.28125 0.4062,0.82813 0.4062,1.82813 0,1.70312 -1.0937,2.89062 -1.0782,1.17188 -3.9219,1.17188 h -3.4219 v 5.42187 z m 1.7656,-7 h 3.4531 q 1.7188,0 2.4375,-0.64062 0.7188,-0.64063 0.7188,-1.79688 0,-0.84375 -0.4219,-1.4375 -0.4219,-0.59375 -1.125,-0.78125 -0.4375,-0.125 -1.6406,-0.125 h -3.4219 z m 16.803,7 v -1.42187 q -1.125,1.64062 -3.0625,1.64062 -0.8594,0 -1.6094,-0.32812 -0.7344,-0.32813 -1.0937,-0.82813 -0.3594,-0.5 -0.5,-1.21875 -0.1094,-0.46875 -0.1094,-1.53125 v -5.98437 h 1.6406 v 5.35937 q 0,1.28125 0.1094,1.73438 0.1562,0.64062 0.6562,1.01562 0.5,0.375 1.2344,0.375 0.7344,0 1.375,-0.375 0.6563,-0.39062 0.9219,-1.03125 0.2656,-0.65625 0.2656,-1.89062 v -5.1875 h 1.6406 v 9.67187 z m 4.0007,0 v -13.35937 h 1.6406 v 13.35937 z m 3.5354,-2.89062 1.625,-0.25 q 0.125,0.96875 0.75,1.5 0.625,0.51562 1.75,0.51562 1.125,0 1.6719,-0.45312 0.5469,-0.46875 0.5469,-1.09375 0,-0.54688 -0.4844,-0.875 -0.3281,-0.21875 -1.6719,-0.54688 -1.8125,-0.46875 -2.5156,-0.79687 -0.6875,-0.32813 -1.0469,-0.90625 -0.3594,-0.59375 -0.3594,-1.3125 0,-0.64063 0.2969,-1.1875 0.2969,-0.5625 0.8125,-0.92188 0.375,-0.28125 1.0313,-0.46875 0.6718,-0.20312 1.4218,-0.20312 1.1407,0 2,0.32812 0.8594,0.32813 1.2657,0.89063 0.4218,0.5625 0.5781,1.5 l -1.6094,0.21875 q -0.1094,-0.75 -0.6406,-1.17188 -0.5156,-0.42187 -1.4688,-0.42187 -1.1406,0 -1.625,0.375 -0.4687,0.375 -0.4687,0.875 0,0.3125 0.1875,0.57812 0.2031,0.26563 0.6406,0.4375 0.2344,0.0937 1.4375,0.42188 1.75,0.45312 2.4375,0.75 0.6875,0.29687 1.0781,0.85937 0.3907,0.5625 0.3907,1.40625 0,0.82813 -0.4844,1.54688 -0.4688,0.71875 -1.375,1.125 -0.9063,0.39062 -2.0469,0.39062 -1.875,0 -2.875,-0.78125 -0.9844,-0.78125 -1.25,-2.32812 z m 16.6094,-0.21875 1.6875,0.20312 q -0.4063,1.48438 -1.4844,2.3125 -1.0781,0.8125 -2.7656,0.8125 -2.125,0 -3.375,-1.29687 -1.2344,-1.3125 -1.2344,-3.67188 0,-2.45312 1.25,-3.79687 1.2656,-1.34375 3.2656,-1.34375 1.9375,0 3.1563,1.32812 1.2344,1.3125 1.2344,3.70313 0,0.15625 0,0.4375 h -7.2188 q 0.094,1.59375 0.9063,2.45312 0.8125,0.84375 2.0156,0.84375 0.9062,0 1.5469,-0.46875 0.6406,-0.48437 1.0156,-1.51562 z m -5.3906,-2.65625 h 5.4062 q -0.1094,-1.21875 -0.625,-1.82813 -0.7812,-0.95312 -2.0312,-0.95312 -1.125,0 -1.9063,0.76562 -0.7656,0.75 -0.8437,2.01563 z m 8.4851,2.875 1.625,-0.25 q 0.125,0.96875 0.75,1.5 0.625,0.51562 1.75,0.51562 1.125,0 1.6719,-0.45312 0.5468,-0.46875 0.5468,-1.09375 0,-0.54688 -0.4843,-0.875 -0.3282,-0.21875 -1.6719,-0.54688 -1.8125,-0.46875 -2.5156,-0.79687 -0.6875,-0.32813 -1.0469,-0.90625 -0.3594,-0.59375 -0.3594,-1.3125 0,-0.64063 0.2969,-1.1875 0.2969,-0.5625 0.8125,-0.92188 0.375,-0.28125 1.0312,-0.46875 0.6719,-0.20312 1.4219,-0.20312 1.1406,0 2,0.32812 0.8594,0.32813 1.2656,0.89063 0.4219,0.5625 0.5782,1.5 l -1.6094,0.21875 q -0.1094,-0.75 -0.6406,-1.17188 -0.5157,-0.42187 -1.4688,-0.42187 -1.1406,0 -1.625,0.375 -0.4687,0.375 -0.4687,0.875 0,0.3125 0.1875,0.57812 0.2031,0.26563 0.6406,0.4375 0.2344,0.0937 1.4375,0.42188 1.75,0.45312 2.4375,0.75 0.6875,0.29687 1.0781,0.85937 0.3906,0.5625 0.3906,1.40625 0,0.82813 -0.4843,1.54688 -0.4688,0.71875 -1.375,1.125 -0.9063,0.39062 -2.0469,0.39062 -1.875,0 -2.875,-0.78125 -0.9844,-0.78125 -1.25,-2.32812 z" />
  <path
     style="fill:none;fill-rule:evenodd;stroke:#527fb5;stroke-width:2.83465;stroke-linecap:round;stroke-linejoin:round;stroke-miterlimit:10;stroke-dasharray:none;stroke-opacity:1"
     d="M 551.07749,284.29171 V 181.01353 h 50.68961 v 103.27989 l 126.53276,-0.12179"
     id="path1101"
     sodipodi:nodetypes="ccccc" />
  <path
     style="fill:none;fill-rule:evenodd;stroke:#527fb5;stroke-width:2.83465;stroke-linecap:round;stroke-linejoin:round;stroke-miterlimit:10;stroke-dasharray:none;stroke-opacity:1"
     d="M 728.29986,284.17163 V 180.89345 h 50.68961 v 103.27989 l 126.53276,-0.12179"
     id="path1101-6"
     sodipodi:nodetypes="ccccc" />
  <path
     style="fill:none;fill-rule:evenodd;stroke:#527fb5;stroke-width:2.83465;stroke-linecap:round;stroke-linejoin:round;stroke-miterlimit:10;stroke-dasharray:none;stroke-opacity:1"
     d="M 905.52223,284.05155 V 180.77337 h 50.68958 v 103.27989 l 126.53279,-0.12179"
     id="path1101-7"
     sodipodi:nodetypes="ccccc" />
  <path
     style="fill:none;fill-rule:evenodd;stroke:#527fb5;stroke-width:2.83465;stroke-linecap:round;stroke-linejoin:round;stroke-miterlimit:10;stroke-dasharray:none;stroke-opacity:1"
     d="M 373.85512,284.41179 V 181.13361 h 50.68961 V 284.4135 l 126.53276,-0.12179"
     id="path1101-5"
     sodipodi:nodetypes="ccccc" />
  <path
     style="fill:none;fill-rule:evenodd;stroke:#527fb5;stroke-width:2.83465;stroke-linecap:round;stroke-linejoin:round;stroke-miterlimit:10;stroke-dasharray:none;stroke-opacity:1"
     d="m 373.85512,284.41179 -126.53276,0.12179 V 181.25369 h -50.68961 v 103.27818"
     id="path1101-56"
     sodipodi:nodetypes="ccccc" />
  <path
     style="fill:none;fill-rule:evenodd;stroke:#000000;stroke-width:1.00157;stroke-linecap:round;stroke-linejoin:miter;stroke-miterlimit:10;stroke-dasharray:none;stroke-opacity:1"
     d="M 0.50078499,263.40773 H 1083.363"
     id="path29925"
     sodipodi:nodetypes="cc" />
  <path
     style="fill:none;fill-rule:evenodd;stroke:#527fb5;stroke-width:2.83465;stroke-linecap:round;stroke-linejoin:round;stroke-miterlimit:10;stroke-dasharray:2.83465, 8.50395;stroke-dashoffset:0;stroke-opacity:1"
     d="m 131.21397,284.53187 -61.113971,0.12179 V 181.37377 H 19.410385 v 103.27818"
     id="path1101-56-2"
     sodipodi:nodetypes="ccccc" />
  <path
     style="fill-rule:evenodd;stroke:#a64d79;stroke-width:4;stroke-linecap:round;stroke-linejoin:round"
     inkscape:connector-curvature="0"
     id="path92"
     d="m 373.87732,192.86473 v -44.49452 h 177.2538 V 192.7"
     sodipodi:nodetypes="cccc" />
  <path
     style="font-variation-settings:normal;opacity:1;vector-effect:none;fill:none;fill-opacity:1;fill-rule:evenodd;stroke:#527fb5;stroke-width:2.83465;stroke-linecap:round;stroke-linejoin:round;stroke-miterlimit:10;stroke-dasharray:none;stroke-dashoffset:0;stroke-opacity:1;-inkscape-stroke:none;stop-color:#000000;stop-opacity:1"
     d="m 131.21397,284.53187 h 65.41878"
     id="path32138"
     sodipodi:nodetypes="cc" />
  <path
     style="fill-rule:evenodd;stroke:#000000;stroke-width:1;stroke-linecap:butt;stroke-linejoin:round"
     inkscape:connector-curvature="0"
     id="path58"
     d="M 196.59559,354.74698 V 92.951715" />
  <path
     style="font-variation-settings:normal;opacity:1;vector-effect:none;fill:none;fill-opacity:1;fill-rule:evenodd;stroke:#9900ff;stroke-width:4;stroke-linecap:round;stroke-linejoin:round;stroke-miterlimit:10;stroke-dasharray:none;stroke-dashoffset:0;stroke-opacity:1;-inkscape-stroke:none;stop-color:#000000;stop-opacity:1"
     d="M 153.87906,20.826391 H 948.15041 V 83.988395"
     id="path34638"
     sodipodi:nodetypes="ccc" />
</svg>
